<?xml version="1.0" standalone="no"?>
<!DOCTYPE svg PUBLIC "-//W3C//DTD SVG 20010904//EN"
 "http://www.w3.org/TR/2001/REC-SVG-20010904/DTD/svg10.dtd">
<svg version="1.0" xmlns="http://www.w3.org/2000/svg"
 width="300.000000pt" height="214.000000pt" viewBox="0 0 300.000000 214.000000"
 preserveAspectRatio="xMidYMid meet">
<metadata>
Created by potrace 1.10, written by Peter Selinger 2001-2011
</metadata>
<g transform="translate(0.000000,214.000000) scale(0.100000,-0.100000)"
fill="#000000" stroke="none">
<path d="M945 2116 c102 -21 109 -26 61 -40 -7 -3 -63 6 -122 19 -60 13 -138
26 -174 30 -64 6 -64 6 -37 -10 16 -9 36 -18 45 -20 9 -3 51 -12 92 -21 41 -8
81 -19 90 -23 17 -8 34 -7 98 3 l42 8 0 -35 0 -35 45 10 c34 7 66 6 128 -7 45
-9 84 -20 87 -25 3 -5 32 -12 65 -15 33 -4 71 -12 85 -17 14 -5 54 -14 90 -19
95 -14 99 -15 106 -22 4 -4 24 -7 45 -7 21 0 41 -5 44 -11 4 -6 13 -8 21 -5 7
3 16 1 19 -4 4 -6 29 -7 61 -4 39 5 74 2 122 -12 37 -10 59 -20 50 -22 -10 -2
-18 -8 -18 -14 0 -5 7 -7 16 -4 9 3 34 9 55 12 29 5 39 11 35 21 -4 8 -6 21
-6 29 0 9 -5 12 -10 9 -6 -4 -8 -11 -5 -16 9 -14 -42 -10 -116 9 -44 12 -74
15 -87 9 -13 -6 -84 6 -233 41 -118 28 -293 67 -389 87 -219 47 -211 44 -182
58 27 12 132 -9 559 -114 133 -32 244 -59 248 -59 11 0 -19 24 -45 37 -14 7
-38 14 -55 16 l-30 4 33 2 c21 0 32 6 32 16 0 17 -12 19 -26 5 -14 -14 -93
-15 -106 -2 -7 7 -30 12 -53 12 -22 0 -54 8 -70 18 -17 11 -67 25 -113 32 -45
7 -85 16 -88 21 -3 5 -22 9 -43 9 -21 0 -58 7 -82 16 -24 9 -77 17 -118 19
-55 1 -77 6 -86 18 -10 14 -29 17 -101 16 l-89 -1 110 -22z"/>
<path d="M2045 2099 c-16 -5 -35 -7 -42 -4 -7 2 -15 0 -18 -4 -2 -5 -30 -12
-61 -16 -32 -4 -67 -11 -78 -15 -20 -8 -20 -9 -1 -9 29 0 235 35 241 42 11 11
-12 14 -41 6z"/>
<path d="M1717 2043 c-32 -9 -57 -17 -55 -19 7 -7 157 20 152 27 -7 12 -28 10
-97 -8z"/>
<path d="M2361 2039 c-35 -4 -69 -13 -75 -19 -12 -12 17 -13 89 -1 41 7 57 5
87 -10 56 -28 67 -23 22 11 -21 16 -43 29 -49 28 -5 0 -39 -4 -74 -9z"/>
<path d="M2123 2016 c4 -12 43 -9 67 5 10 6 1 8 -28 7 -26 -1 -41 -6 -39 -12z"/>
<path d="M2127 1983 c-4 -3 -7 -11 -7 -17 0 -6 4 -5 8 2 7 10 15 10 36 2 39
-14 54 -12 32 5 -21 16 -58 20 -69 8z"/>
<path d="M674 1964 c4 -10 -1 -25 -9 -34 -10 -11 -12 -20 -6 -24 17 -11 41 34
30 56 -12 22 -23 24 -15 2z"/>
<path d="M2304 1959 c-2 -4 3 -9 11 -13 8 -3 15 -1 15 4 0 5 6 7 14 4 8 -3 17
0 21 6 4 7 -4 10 -25 8 -17 -1 -33 -5 -36 -9z"/>
<path d="M2840 1930 l-45 -7 40 -1 c22 0 49 3 60 8 23 10 9 10 -55 0z"/>
<path d="M2250 1886 c0 -15 -7 -17 -47 -14 -27 3 -55 8 -64 12 -12 5 -18 1
-22 -13 -4 -18 -1 -19 67 -14 l71 6 -3 -223 c-3 -193 -1 -220 11 -208 16 14
21 148 6 148 -4 0 -4 13 1 28 4 16 8 78 8 137 l0 109 58 -3 c66 -3 142 -16
192 -32 18 -6 36 -8 39 -5 3 3 -22 13 -56 22 -33 10 -59 19 -57 22 6 6 108
-19 121 -30 12 -11 45 -10 45 1 0 11 -25 21 -51 21 -29 0 -23 19 9 26 15 3 36
9 47 14 17 7 16 9 -10 9 -16 0 -97 -6 -180 -13 -132 -11 -152 -11 -167 2 -16
14 -18 13 -18 -2z"/>
<path d="M1920 1834 c-8 -1 -42 -6 -75 -10 -48 -5 -56 -8 -37 -15 31 -12 28
-23 -13 -45 -19 -10 -35 -22 -35 -26 0 -5 -3 -7 -8 -5 -11 3 -62 -39 -55 -47
3 -3 1 -6 -5 -6 -12 0 -35 -22 -115 -109 -27 -29 -50 -51 -52 -49 -2 2 -5 65
-6 141 -1 75 -6 137 -10 137 -5 0 -9 -92 -9 -205 0 -130 4 -205 10 -205 6 0
10 -69 10 -186 0 -139 3 -185 12 -182 13 5 14 72 3 246 l-7 112 79 0 c43 0
101 -3 130 -6 l52 -7 -3 -229 c-2 -161 0 -228 8 -225 8 3 11 76 11 230 l0 227
116 0 c64 0 131 -3 148 -6 l32 -7 -2 -189 c-1 -187 -2 -189 -23 -183 -20 5
-20 4 2 -6 29 -16 28 -27 -3 -39 -15 -6 -25 -17 -25 -29 0 -11 -4 -22 -9 -26
-10 -5 4 -62 19 -78 4 -5 11 15 15 45 8 59 19 85 46 109 11 9 15 19 9 25 -11
11 -13 149 -5 270 10 133 14 130 -223 138 -304 11 -384 15 -389 19 -16 17 100
180 183 256 73 68 121 98 219 138 58 24 72 32 50 32 -16 -1 -37 -3 -45 -5z"/>
<path d="M2110 1723 c0 -132 15 -169 25 -62 3 41 4 85 1 99 -2 14 -5 35 -5 48
-1 12 -5 22 -11 22 -6 0 -10 -42 -10 -107z"/>
<path d="M1923 1792 c-29 -14 -53 -29 -53 -33 0 -4 24 4 53 18 57 27 62 31 56
37 -2 2 -28 -8 -56 -22z"/>
<path d="M2371 1665 c-1 -82 -5 -163 -7 -180 -4 -22 -2 -27 6 -19 7 7 9 67 7
180 l-3 169 -3 -150z"/>
<path d="M2313 1785 c-18 -20 -16 -25 7 -25 13 0 20 7 20 20 0 23 -10 25 -27
5z"/>
<path d="M2626 1785 l31 -14 -5 -187 c-4 -157 -3 -186 9 -182 11 4 15 40 17
176 1 95 5 172 9 172 13 0 120 -64 163 -98 25 -19 69 -58 98 -86 l52 -50 0 41
c0 32 -4 43 -19 48 -11 3 -22 12 -25 20 -3 8 -12 15 -20 15 -8 0 -17 9 -21 19
-3 10 -16 22 -28 25 -12 3 -32 14 -44 26 -12 11 -27 20 -33 20 -5 0 -10 5 -10
12 0 6 -3 8 -6 5 -4 -4 -19 2 -34 13 -16 11 -32 20 -37 20 -4 0 -1 -5 7 -10
11 -7 5 -9 -20 -7 -19 1 -46 10 -60 20 -13 9 -31 17 -40 16 -8 0 -1 -7 16 -14z
m239 -112 c24 -21 54 -46 69 -56 14 -10 31 -28 37 -40 8 -16 1 -12 -27 14 -22
20 -60 51 -86 69 -27 18 -48 37 -48 42 0 15 12 8 55 -29z"/>
<path d="M1375 1783 c-6 -2 -9 -35 -6 -84 l3 -80 -113 1 c-143 2 -179 7 -179
29 -1 9 -7 30 -15 46 l-14 30 2 -45 c1 -34 -2 -45 -13 -45 -12 0 -14 10 -12
45 2 39 1 42 -9 25 -7 -10 -15 -33 -19 -50 l-6 -30 -269 1 c-149 0 -372 4
-497 9 -208 7 -228 6 -228 -9 0 -15 40 -16 443 -17 243 0 555 -4 692 -8 138
-5 251 -7 253 -6 8 7 -4 191 -13 188z"/>
<path d="M2455 1759 l-50 -6 62 -1 c34 -1 64 2 68 7 3 6 -3 9 -12 8 -10 -1
-40 -5 -68 -8z"/>
<path d="M1798 1694 c-5 -4 -8 -68 -8 -143 1 -96 4 -131 11 -119 11 20 8 274
-3 262z"/>
<path d="M1748 1669 c-10 -5 -18 -16 -18 -23 0 -18 -35 -48 -45 -39 -4 5 -5 3
-2 -3 4 -7 0 -15 -9 -18 -9 -4 -14 -9 -11 -13 4 -3 0 -15 -8 -27 -18 -24 -20
-102 -4 -112 9 -5 10 6 6 42 -5 45 -2 52 39 105 24 32 44 63 44 69 0 6 4 9 9
6 5 -3 11 1 15 9 6 17 6 17 -16 4z"/>
<path d="M2717 1613 c2 -79 17 -83 20 -5 1 42 -2 62 -10 62 -8 0 -11 -19 -10
-57z"/>
<path d="M2430 1642 c0 -10 5 -23 12 -30 7 -7 8 -12 3 -12 -6 0 -11 -14 -12
-30 -2 -26 1 -30 22 -30 24 0 25 3 25 60 0 57 -1 60 -25 60 -17 0 -25 -5 -25
-18z"/>
<path d="M2534 1644 c3 -9 6 -18 6 -20 0 -13 19 -1 23 16 4 15 0 20 -15 20
-14 0 -18 -5 -14 -16z"/>
<path d="M2300 1630 c0 -11 5 -20 11 -20 6 0 9 -7 5 -15 -3 -8 -2 -15 3 -15 9
0 21 33 21 58 0 6 -9 12 -20 12 -13 0 -20 -7 -20 -20z"/>
<path d="M2778 1613 c-10 -19 -8 -73 1 -73 6 0 11 18 11 40 0 38 -4 49 -12 33z"/>
<path d="M2829 1608 c-9 -43 -7 -68 6 -68 17 0 21 55 5 65 -5 3 -10 5 -11 3z"/>
<path d="M442 1578 c3 -9 33 -11 114 -8 60 2 162 4 227 4 64 1 117 4 117 9 0
4 -104 7 -231 7 -177 0 -230 -3 -227 -12z"/>
<path d="M910 1583 c0 -5 7 -21 15 -36 17 -33 29 -177 15 -177 -20 0 -25 2
-23 11 2 5 -2 9 -7 9 -6 0 -10 -35 -10 -85 0 -78 -2 -85 -20 -85 -11 0 -20 -5
-20 -11 0 -6 -9 -9 -20 -6 -11 3 -23 1 -26 -4 -3 -5 -10 -7 -15 -4 -13 9 -12
285 2 285 5 0 8 4 4 9 -3 6 -14 9 -25 8 -14 -1 -16 -4 -9 -14 7 -7 8 -29 4
-53 -4 -22 -7 -83 -7 -134 l1 -94 -32 -4 c-18 -3 -40 -8 -49 -13 -13 -5 -18
-3 -18 10 0 13 -3 15 -13 7 -13 -11 -144 -28 -184 -23 -18 2 -16 41 2 41 8 0
15 4 15 9 0 5 -7 11 -15 15 -17 6 -21 36 -5 36 13 0 13 87 1 95 -5 3 -12 -9
-14 -27 -3 -18 -4 20 -3 84 0 67 -3 113 -8 108 -11 -11 -13 -224 -3 -308 6
-52 5 -63 -8 -68 -8 -3 -15 -10 -15 -14 0 -16 52 -16 156 0 60 10 171 25 246
35 75 10 141 21 146 24 5 3 6 90 4 194 l-4 187 -29 0 c-16 0 -29 -3 -29 -7z"/>
<path d="M2084 1495 c0 -49 1 -71 3 -48 2 23 2 64 0 90 -2 26 -3 8 -3 -42z"/>
<path d="M2119 1568 c0 -7 -2 -20 -3 -28 -2 -8 0 -24 5 -35 5 -14 8 -7 8 28 1
26 -1 47 -4 47 -3 0 -5 -6 -6 -12z"/>
<path d="M2307 1563 c-13 -12 -7 -23 13 -23 11 0 20 7 20 15 0 15 -21 21 -33
8z"/>
<path d="M2536 1555 c-4 -11 2 -15 27 -15 30 1 31 1 13 15 -25 19 -32 19 -40
0z"/>
<path d="M1720 1488 c0 -54 3 -68 15 -68 20 0 20 68 0 106 -15 28 -15 28 -15
-38z"/>
<path d="M2586 1491 c2 -42 5 -47 14 -26 12 29 12 42 -3 48 -8 3 -12 -4 -11
-22z"/>
<path d="M2230 1390 c0 -6 4 -10 10 -10 13 0 1 -609 -12 -630 -8 -12 -9 -12
-4 2 4 13 -2 19 -22 24 -15 3 -35 8 -44 11 -27 7 -58 -6 -52 -21 3 -8 -4 -21
-16 -29 -20 -14 -14 -14 64 -10 47 3 86 3 86 0 0 -3 -22 -28 -50 -55 -27 -27
-50 -55 -50 -62 0 -11 158 132 168 150 1 3 -10 6 -25 5 l-28 0 4 295 c1 162 5
297 6 299 2 2 90 0 195 -4 l191 -7 -6 -182 c-3 -99 -8 -223 -11 -273 -4 -75
-2 -93 8 -93 11 0 15 27 17 123 2 67 6 189 10 271 l6 149 155 -2 c85 -1 158
-5 162 -7 4 -3 8 6 8 20 l0 26 -147 1 c-82 0 -175 2 -208 4 -172 11 -415 14
-415 5z"/>
<path d="M1488 1369 c-1 -8 -2 -81 -3 -163 -2 -144 -3 -149 -26 -167 -13 -10
-32 -19 -42 -19 -17 0 -18 8 -16 77 3 58 0 78 -10 81 -8 3 -11 0 -7 -6 4 -7
-8 -15 -31 -21 -53 -14 -356 -71 -376 -71 -13 0 -17 10 -17 46 l0 45 -47 -6
c-27 -3 -64 -9 -83 -12 -19 -4 -38 -6 -42 -5 -3 1 -4 -16 -1 -36 4 -33 2 -40
-18 -49 l-24 -12 25 -1 c24 -2 23 -2 -5 -10 -16 -5 -185 -39 -375 -75 -411
-77 -390 -73 -390 -86 0 -11 32 -8 117 12 27 5 65 11 86 11 20 0 40 4 43 9 3
5 47 9 99 9 67 0 94 4 98 13 3 7 22 18 43 24 48 14 190 42 227 45 15 1 27 5
27 9 0 14 50 16 61 3 9 -11 8 -14 -2 -15 -8 -1 8 -5 35 -10 27 -4 57 -4 65 0
9 4 42 7 74 6 31 -2 57 1 57 6 0 9 -10 12 -40 12 -10 0 -15 10 -15 29 0 22 4
28 23 28 17 0 22 -6 22 -26 0 -20 4 -25 16 -20 9 3 28 6 42 6 23 1 25 2 9 11
-9 5 -22 7 -27 4 -5 -3 -7 0 -4 9 3 8 24 16 47 19 23 3 91 15 151 27 117 23
130 20 121 -27 -3 -13 -7 -34 -10 -47 -3 -16 -14 -25 -32 -29 -16 -3 -36 -9
-45 -12 -13 -5 -21 0 -30 21 l-12 29 -4 -27 c-2 -16 -8 -28 -14 -28 -6 0 -8
13 -6 31 4 27 3 30 -16 24 -12 -4 -34 -7 -51 -7 -16 0 -22 -2 -12 -5 12 -3 17
-15 17 -38 0 -37 -4 -42 -43 -49 -15 -3 -37 -8 -48 -11 -14 -5 -25 -2 -30 6
-7 11 -9 10 -9 -3 0 -17 -4 -20 -32 -22 -7 -1 -16 -5 -19 -9 -3 -5 -22 -9 -42
-10 -20 -1 -37 -5 -37 -8 0 -4 -21 -12 -47 -19 -107 -27 -190 -52 -219 -65
-31 -13 -32 -13 -43 18 -9 27 -10 27 -6 5 5 -24 2 -28 -31 -34 -28 -5 -39 -2
-54 14 -14 15 -16 22 -7 25 9 4 9 6 0 6 -19 1 -17 71 1 71 24 0 70 -20 82 -36
10 -13 12 -13 17 0 5 11 -12 21 -66 38 l-72 24 3 -56 c2 -30 6 -62 9 -70 3 -8
6 -22 5 -30 -1 -10 0 -11 4 -2 3 6 10 12 16 12 6 0 3 -12 -7 -26 -17 -26 -17
-27 6 -22 37 8 661 189 934 271 l79 24 -3 174 c-1 96 -5 176 -7 178 -2 2 -5
-2 -6 -10z m-588 -229 c23 0 31 -7 48 -47 l21 -48 -27 -8 c-15 -5 -34 -11 -42
-14 -8 -3 -30 -7 -47 -8 -29 -2 -33 1 -33 24 0 14 -3 42 -6 63 -5 30 -3 37 12
41 11 2 25 3 32 1 8 -2 26 -4 42 -4z m308 -142 c-5 -32 -28 -35 -28 -4 0 17 5
26 16 26 10 0 14 -7 12 -22z"/>
<path d="M536 1343 c1 -16 3 -44 3 -63 1 -29 3 -32 12 -17 6 10 7 36 3 62 -7
49 -21 62 -18 18z"/>
<path d="M1378 1344 c-4 -5 -5 -41 -2 -79 4 -70 13 -101 15 -49 0 25 1 27 9 9
7 -14 8 -8 4 20 -12 79 -20 110 -26 99z"/>
<path d="M2364 1190 c0 -74 1 -105 3 -67 2 37 2 97 0 135 -2 37 -3 6 -3 -68z"/>
<path d="M820 1295 c9 -11 17 -12 31 -4 27 14 24 19 -12 19 -27 0 -30 -2 -19
-15z"/>
<path d="M2040 1285 c0 -8 8 -15 18 -15 10 0 19 7 19 15 0 8 -9 15 -19 15 -10
0 -18 -7 -18 -15z"/>
<path d="M1649 1273 c-3 -23 2 -158 6 -162 3 -2 5 35 5 82 0 48 -2 87 -5 87
-3 0 -5 -3 -6 -7z"/>
<path d="M2004 1257 c3 -11 0 -20 -9 -23 -18 -7 -10 -24 11 -24 16 0 18 28 3
50 -9 13 -10 12 -5 -3z"/>
<path d="M2433 1243 c20 -2 54 -2 75 0 20 2 3 4 -38 4 -41 0 -58 -2 -37 -4z"/>
<path d="M1920 1230 c0 -5 -8 -9 -17 -8 -36 3 -66 -2 -59 -9 4 -5 12 -9 17 -9
5 -1 12 -2 16 -3 3 0 -4 -10 -17 -21 l-23 -20 35 0 c58 0 98 19 98 45 0 13 -7
26 -16 29 -23 9 -34 7 -34 -4z m33 -29 c-4 -17 -30 -31 -59 -31 -6 0 -9 10 -7
23 3 17 12 23 38 24 28 2 32 0 28 -16z"/>
<path d="M2748 1193 c17 -2 47 -2 65 0 17 2 3 4 -33 4 -36 0 -50 -2 -32 -4z"/>
<path d="M2900 1189 c-22 -4 -27 -7 -12 -8 12 0 22 -6 22 -13 0 -8 6 -6 17 5
22 21 16 24 -27 16z"/>
<path d="M1987 1142 c-8 -18 -28 -30 -62 -41 -46 -15 -50 -19 -53 -51 -2 -19
-9 -38 -15 -42 -9 -6 -9 -8 1 -8 15 0 23 19 26 55 1 23 5 25 44 25 31 0 42 4
42 15 0 14 9 16 68 19 9 1 16 -4 15 -11 -1 -6 4 -14 13 -17 9 -3 12 -2 9 5 -4
5 -1 17 6 25 10 12 9 13 -5 8 -9 -3 -16 -1 -16 5 0 6 6 11 13 11 6 0 1 6 -13
13 -38 20 -59 17 -73 -11z"/>
<path d="M2300 1148 c0 -18 2 -20 9 -9 7 11 10 7 14 -15 3 -25 4 -24 6 9 1 27
-3 37 -14 37 -9 0 -15 -9 -15 -22z"/>
<path d="M2420 1149 c0 -5 5 -7 10 -4 6 3 10 1 10 -5 0 -6 4 -9 9 -6 5 4 12 0
14 -6 3 -7 6 -3 6 10 1 17 -5 22 -24 22 -14 0 -25 -5 -25 -11z"/>
<path d="M718 1143 c-12 -3 -18 -14 -18 -34 0 -36 12 -37 31 -1 8 15 18 30 24
34 11 8 -9 9 -37 1z"/>
<path d="M1720 1139 c0 -5 7 -9 15 -9 7 0 19 -8 24 -17 9 -15 10 -14 9 8 -2
20 -7 27 -25 27 -13 0 -23 -4 -23 -9z"/>
<path d="M2520 1130 c0 -11 5 -20 11 -20 7 0 10 -12 7 -30 -3 -16 -1 -30 4
-30 4 0 9 15 10 33 1 28 2 26 8 -13 7 -43 8 -43 7 18 0 58 -2 62 -24 62 -16 0
-23 -6 -23 -20z"/>
<path d="M2720 1130 c-11 -11 -19 -30 -19 -42 1 -17 2 -19 6 -5 5 20 19 22 26
5 4 -10 6 -10 6 0 1 6 8 12 17 12 8 0 12 -4 9 -10 -3 -5 0 -7 8 -4 7 2 25 -4
38 -15 13 -11 19 -20 14 -21 -15 0 -16 -40 -1 -40 14 0 19 67 5 75 -4 3 -6 12
-3 19 7 17 -33 46 -63 46 -13 0 -32 -9 -43 -20z"/>
<path d="M2980 1090 c0 -16 5 -30 10 -30 6 0 10 14 10 30 0 17 -4 30 -10 30
-5 0 -10 -13 -10 -30z"/>
<path d="M1720 1072 c0 -20 -3 -48 -6 -62 -4 -20 -3 -22 5 -10 6 8 11 27 11
41 0 17 8 29 21 35 21 10 21 10 -5 22 -25 11 -26 11 -26 -26z"/>
<path d="M2420 1081 c0 -23 5 -30 25 -33 23 -5 25 -2 25 28 0 30 -3 34 -25 34
-21 0 -25 -5 -25 -29z"/>
<path d="M2700 1040 c0 -11 6 -20 14 -20 9 0 14 9 13 20 -1 11 -7 20 -14 20
-7 0 -13 -9 -13 -20z"/>
<path d="M1680 1030 c0 -12 -7 -20 -17 -20 -15 0 -14 -2 3 -16 10 -8 13 -13 7
-9 -9 4 -11 -2 -7 -25 5 -25 3 -30 -12 -30 -18 -1 -18 -1 -1 -11 21 -12 23
-33 2 -25 -10 4 -15 -1 -16 -17 0 -12 -3 -17 -5 -11 -5 13 -74 -14 -74 -29 0
-5 -13 -6 -29 -2 -27 6 -29 4 -24 -16 4 -15 2 -20 -5 -15 -16 9 -92 -16 -92
-31 0 -16 -3 -16 -45 1 -19 8 -35 21 -35 28 0 9 -3 9 -10 -2 -10 -16 -23 -8
-26 16 -2 10 3 14 12 10 8 -3 14 -1 14 5 0 15 45 7 46 -8 1 -7 2 -20 3 -28 0
-8 6 -15 11 -15 6 0 10 25 10 55 0 30 -2 55 -5 55 -2 0 -27 -9 -55 -20 -64
-25 -63 -25 -57 6 3 17 1 22 -6 15 -7 -7 -7 -36 0 -93 6 -47 6 -87 2 -93 -6
-5 -9 -3 -9 7 0 14 -4 14 -37 -3 -21 -10 -48 -19 -60 -19 -16 0 -23 -6 -23
-20 0 -11 -4 -20 -10 -20 -5 0 -10 10 -10 23 0 12 -3 32 -6 44 -5 19 -9 20
-31 10 -23 -10 -25 -16 -21 -59 4 -36 2 -48 -8 -48 -8 0 -14 6 -14 13 0 8 -4
7 -10 -3 -5 -8 -10 -12 -10 -8 0 4 -19 1 -41 -7 -23 -8 -54 -15 -70 -15 -16 0
-28 -3 -28 -7 5 -33 -31 -54 -56 -33 -22 18 -18 32 5 20 19 -10 20 -8 20 59
l0 70 -42 -18 c-23 -9 -44 -23 -46 -31 -3 -8 0 -10 8 -5 8 5 11 1 9 -11 -1
-11 5 -36 15 -56 20 -46 20 -48 1 -48 -8 0 -15 7 -15 16 0 9 -8 22 -17 29 -12
9 -17 24 -15 49 3 29 0 35 -12 30 -11 -4 -16 3 -19 28 -7 48 0 -87 8 -152 4
-30 8 -56 10 -58 3 -3 98 34 150 58 63 29 134 58 158 64 15 3 53 18 85 32 69
31 89 40 212 89 182 73 234 96 240 105 4 6 19 12 36 14 41 5 65 16 58 27 -3 5
2 9 10 9 8 0 20 9 26 19 14 27 13 31 -6 24 -8 -3 -13 -12 -10 -19 3 -8 1 -14
-5 -14 -12 0 -2 104 12 132 12 23 11 28 -6 28 -8 0 -15 -9 -15 -20z m-366
-260 c14 -5 26 -14 26 -19 0 -17 -41 -8 -51 11 -11 21 -9 21 25 8z m-487 -125
c-15 -11 -15 -13 1 -30 16 -17 16 -17 0 -12 -11 4 -18 1 -19 -6 -1 -15 -17 32
-18 55 -1 10 8 18 22 20 27 4 35 -11 14 -27z m-57 -113 c0 -42 -15 -33 -25 15
-5 28 -4 32 9 27 11 -4 16 -19 16 -42z"/>
<path d="M2333 1043 c9 -3 18 -14 18 -26 1 -17 2 -18 6 -4 3 11 14 17 35 17
46 0 31 7 -27 12 -27 3 -42 3 -32 1z"/>
<path d="M2478 1008 c-3 -7 -21 -12 -41 -11 -41 1 -48 -10 -16 -28 15 -8 19
-8 15 0 -9 14 27 15 52 2 9 -6 30 -13 45 -16 21 -4 27 -10 23 -22 -5 -13 -4
-14 8 -4 16 13 10 45 -6 35 -6 -4 -7 2 -3 17 7 20 5 22 -6 12 -19 -15 -69 -5
-62 13 3 8 3 14 0 14 -3 0 -7 -5 -9 -12z"/>
<path d="M1573 1003 c-13 -2 -23 -9 -23 -14 0 -20 -2 -25 -17 -41 -8 -9 -12
-22 -8 -27 3 -6 2 -11 -4 -11 -5 0 -12 12 -14 28 -3 21 -4 19 -6 -11 0 -23 3
-36 9 -32 14 8 13 -8 -1 -22 -8 -8 -5 -14 10 -22 20 -11 21 -9 21 38 0 51 21
88 42 75 6 -4 19 4 30 17 l19 24 -5 -60 c-4 -51 -3 -55 5 -25 16 59 17 65 6
78 -9 12 -22 13 -64 5z"/>
<path d="M2750 992 c0 -17 13 -22 27 -11 10 9 13 8 13 0 0 -7 5 -9 10 -6 20
12 9 25 -20 25 -16 0 -30 -4 -30 -8z"/>
<path d="M1879 944 c-47 -25 -48 -31 -2 -13 15 7 44 15 63 18 33 7 34 7 9 12
-17 4 -42 -3 -70 -17z"/>
<path d="M2150 950 c0 -10 -6 -23 -14 -27 -16 -9 -19 -22 -17 -75 2 -57 21
-45 21 12 0 36 4 52 15 56 17 7 21 54 5 54 -5 0 -10 -9 -10 -20z"/>
<path d="M2784 955 c5 -15 -6 -15 -66 -2 -6 1 -13 -4 -15 -10 -3 -9 7 -13 34
-14 21 0 48 -2 61 -3 13 -2 27 4 33 13 9 14 10 14 5 -2 -5 -16 0 -18 39 -16
25 2 45 7 45 11 0 5 8 4 18 -1 11 -6 24 -6 33 0 10 6 6 9 -16 10 -30 1 -35 1
-69 -9 -14 -4 -17 -2 -11 9 7 12 6 12 -7 1 -13 -10 -17 -10 -22 4 -4 9 -9 14
-12 11 -3 -3 -17 -1 -31 4 -21 8 -24 7 -19 -6z"/>
<path d="M2323 925 c4 -9 7 -19 7 -21 0 -3 5 -2 10 1 16 10 12 -7 -7 -27 -21
-23 -11 -35 11 -13 22 23 20 52 -6 66 -18 10 -20 9 -15 -6z"/>
<path d="M2986 923 c-3 -4 -25 -10 -49 -14 l-42 -6 47 -2 c26 0 50 4 53 10 8
12 1 22 -9 12z"/>
<path d="M1955 878 c-16 -6 -36 -12 -42 -14 -7 -2 -13 -14 -13 -26 0 -24 -49
-93 -50 -70 0 8 -8 6 -22 -8 -32 -30 -49 -26 -41 10 l6 30 -28 -14 c-16 -8
-45 -18 -66 -21 -35 -6 -39 -11 -53 -53 -21 -68 -38 -174 -34 -212 4 -38 -26
-66 -83 -79 l-34 -8 2 39 c1 21 -2 38 -8 38 -5 0 -9 -22 -9 -50 0 -45 2 -50
22 -50 13 0 47 17 77 37 l53 37 -6 53 c-4 33 -2 53 4 53 5 0 10 -19 11 -42 0
-39 17 -100 18 -70 1 15 33 16 48 1 9 -9 11 -7 9 7 -2 12 -13 21 -32 24 -27 5
-29 9 -37 65 -9 65 -1 157 13 136 6 -10 11 -8 21 6 8 10 31 32 52 47 l37 28 0
-38 c0 -29 3 -35 10 -24 9 13 11 13 20 0 14 -22 12 -33 -5 -26 -12 4 -15 -3
-15 -34 0 -21 4 -41 8 -44 5 -3 6 9 4 27 l-5 31 24 -17 c13 -10 32 -20 42 -24
9 -3 17 -9 17 -13 0 -4 25 -6 57 -5 58 3 80 18 63 45 -8 13 -10 13 -10 0 0
-10 -16 -19 -45 -26 -25 -6 -45 -7 -45 -3 0 4 -6 9 -12 12 -7 2 -5 3 5 2 9 -2
17 3 17 11 0 9 -11 14 -27 14 -38 0 -49 10 -58 48 -5 23 -3 32 7 34 7 0 18 2
23 2 6 1 16 5 23 9 8 5 12 3 12 -7 0 -10 -9 -16 -26 -16 -14 0 -23 -4 -19 -10
3 -5 15 -10 25 -10 11 0 20 -9 23 -22 2 -13 5 6 7 42 1 49 4 59 10 40 4 -14 8
-42 9 -62 1 -33 4 -38 25 -38 14 0 27 4 30 9 3 5 15 7 25 4 21 -5 34 -56 18
-72 -5 -5 -6 -14 -2 -21 5 -8 10 -6 19 5 11 15 14 15 36 -3 l24 -19 -25 -14
c-13 -7 -28 -12 -32 -11 -5 1 -6 -2 -2 -8 3 -5 -1 -10 -9 -10 -9 0 -16 -7 -16
-15 0 -8 -4 -15 -10 -15 -5 0 -10 7 -10 15 0 8 -4 15 -10 15 -19 0 -10 -19 16
-36 25 -17 26 -17 86 43 42 42 59 66 55 77 -4 9 -13 16 -20 16 -8 0 -31 16
-52 35 -35 33 -36 37 -21 54 23 25 20 36 -10 36 -22 0 -25 -4 -21 -28 2 -15 0
-30 -5 -33 -5 -3 -8 20 -6 53 2 32 8 57 13 56 6 -1 11 10 11 23 1 13 -2 24 -7
24 -5 0 -9 9 -9 20 0 22 -2 22 -45 8z m28 -95 c-5 -69 -9 -84 -24 -88 -24 -8
-42 3 -32 18 4 7 8 33 9 60 0 35 7 54 24 72 13 14 25 24 26 22 1 -1 0 -39 -3
-84z m74 -145 c-8 -6 -6 -10 8 -14 12 -3 27 -14 33 -25 10 -16 5 -15 -30 8
-24 15 -44 28 -46 29 -1 0 0 8 4 17 5 13 9 14 24 4 14 -8 16 -13 7 -19z"/>
<path d="M2440 881 c0 -11 34 -18 112 -24 53 -4 84 7 46 16 -50 13 -158 18
-158 8z"/>
<path d="M1175 873 c-49 -5 -59 -14 -50 -43 7 -22 7 -22 21 -1 9 12 22 18 34
16 11 -2 20 0 20 6 0 5 6 9 14 9 8 0 18 5 21 10 3 6 0 9 -7 8 -7 -1 -31 -3
-53 -5z"/>
<path d="M2832 808 c1 -60 1 -61 7 -18 5 38 10 46 30 48 l23 4 -27 14 c-15 8
-29 14 -31 14 -2 0 -3 -28 -2 -62z"/>
<path d="M237 840 c-4 -14 -6 -51 -3 -82 3 -39 0 -60 -8 -67 -7 -6 -59 -24
-116 -40 -108 -32 -114 -34 -109 -49 3 -7 239 52 344 87 17 5 49 15 73 21 34
9 40 13 30 23 -15 14 -168 11 -168 -4 0 -5 12 -9 28 -10 24 0 24 -1 7 -8 -19
-8 -18 -9 5 -13 25 -5 25 -5 -2 -7 -16 0 -28 4 -28 9 0 6 -9 10 -20 10 -17 0
-19 8 -22 78 -2 55 -5 70 -11 52z"/>
<path d="M1052 793 c-1 -28 3 -55 8 -58 6 -3 10 -1 10 4 0 6 9 11 20 11 11 0
20 3 20 8 0 4 3 18 7 32 6 24 6 24 -11 8 -27 -27 -44 -22 -49 15 -3 22 -4 16
-5 -20z"/>
<path d="M2732 835 c2 -3 16 -6 31 -7 14 -1 24 -5 21 -9 -2 -4 1 -11 7 -15 12
-7 31 15 23 28 -3 4 -24 8 -46 8 -23 0 -39 -2 -36 -5z"/>
<path d="M2354 798 c-27 -31 -27 -32 -2 -9 15 13 45 27 65 31 l38 8 -36 1
c-28 1 -41 -6 -65 -31z"/>
<path d="M2855 821 c-3 -7 3 -12 17 -13 13 0 36 -2 51 -3 15 -1 33 -7 40 -14
13 -13 37 -15 37 -3 0 18 -135 48 -145 33z"/>
<path d="M1008 814 c-4 -3 -37 -9 -75 -12 -67 -7 -68 -7 -71 -38 -2 -22 2 -33
14 -38 12 -5 15 -2 9 11 -13 34 -10 38 25 40 60 4 99 15 111 29 11 13 -1 21
-13 8z"/>
<path d="M2860 744 c-19 -7 -59 -13 -87 -13 -52 -1 -53 -2 -53 -31 0 -30 8
-37 26 -21 5 5 27 11 49 14 22 3 50 8 61 12 21 6 21 5 13 -37 -11 -56 -11 -58
1 -58 6 0 10 7 10 15 0 8 5 15 11 15 7 0 9 -10 7 -25 -4 -19 -2 -23 7 -15 8 6
30 8 54 4 33 -5 41 -4 41 9 0 16 -11 21 -72 32 -42 7 -46 21 -29 83 11 35 11
35 -39 16z"/>
<path d="M2618 649 c-22 -41 -25 -56 -17 -77 10 -26 10 -26 -10 -7 -18 15 -21
16 -21 3 0 -9 -11 -26 -25 -39 -13 -13 -25 -34 -25 -47 0 -15 -4 -21 -12 -16
-7 4 -3 -6 8 -22 12 -16 24 -37 27 -47 6 -15 4 -16 -13 -7 -14 8 -27 8 -42 0
-23 -11 -23 -11 -3 7 22 20 32 53 16 53 -5 0 -13 -5 -17 -12 -5 -7 -3 -8 7 -3
8 5 1 -4 -14 -20 -15 -16 -25 -35 -23 -42 3 -8 2 -12 -3 -9 -8 5 -17 -10 -39
-66 -9 -21 -8 -35 3 -60 l13 -33 12 30 c21 54 24 85 9 86 -8 0 -5 4 6 8 14 6
25 3 38 -10 20 -22 47 -25 48 -6 0 6 5 1 11 -13 l11 -25 9 33 c7 26 4 46 -11
88 -20 51 -20 54 -3 54 11 0 22 -11 28 -27 l10 -28 6 28 c4 21 1 30 -11 35
-27 10 -51 45 -40 59 11 13 54 11 67 -2 4 -4 0 -5 -8 0 -8 5 -4 -4 9 -18 13
-15 28 -24 33 -21 5 3 1 12 -9 21 -16 13 -16 13 5 3 13 -7 27 -8 30 -4 4 4 1
9 -5 11 -27 10 -52 39 -58 69 -6 30 -5 31 27 27 l33 -4 -24 19 c-27 22 -16 35
26 30 42 -5 43 27 2 41 -18 6 -32 11 -33 11 -1 0 -13 -23 -28 -51z m-78 -294
c37 -19 38 -30 3 -30 -34 0 -53 11 -53 31 0 18 14 18 50 -1z"/>
<path d="M652 680 c-12 -5 -52 -15 -87 -21 -69 -12 -81 -20 -70 -47 6 -15 8
-15 18 -2 7 9 38 22 71 30 32 8 68 22 80 32 23 19 21 21 -12 8z"/>
<path d="M1756 674 c-4 -9 -4 -31 0 -48 6 -35 -4 -48 -47 -65 -25 -9 -26 -8
-25 30 0 21 4 39 9 39 5 0 2 7 -7 15 -8 8 -16 15 -18 15 -6 0 -8 -66 -3 -98 6
-35 18 -37 72 -10 29 14 40 4 22 -19 -13 -16 -12 -17 4 -4 12 10 21 11 28 4
12 -12 61 -5 53 8 -3 5 -14 9 -25 9 -26 0 -24 16 4 24 38 10 47 7 47 -19 0
-20 -6 -27 -30 -31 -41 -9 -38 -24 5 -24 19 0 35 5 35 11 0 6 7 3 16 -5 8 -9
21 -16 27 -16 7 0 19 -5 27 -10 12 -7 7 -16 -25 -49 -22 -22 -43 -37 -47 -35
-13 8 -9 72 5 77 6 2 9 8 5 12 -14 14 -28 -7 -28 -42 0 -22 -7 -41 -17 -49
-12 -9 -14 -13 -5 -14 21 0 -13 -30 -34 -30 -16 0 -16 -1 2 -15 28 -21 11 -18
-69 10 -38 14 -73 23 -76 19 -10 -10 31 -34 59 -34 14 0 34 -6 44 -13 16 -12
14 -16 -23 -50 -44 -41 -61 -46 -61 -19 0 9 -7 31 -16 47 -20 35 -19 91 1 122
20 29 19 33 -5 30 -25 -4 -60 -49 -42 -55 19 -6 14 -20 -10 -33 -21 -11 -22
-11 -9 4 18 23 5 21 -50 -6 -26 -12 -44 -27 -42 -35 3 -6 9 -10 14 -6 5 3 9 0
9 -5 0 -10 -17 -15 -47 -14 -9 1 -13 -15 -13 -46 1 -41 2 -44 14 -28 8 10 12
26 9 36 -3 13 11 25 63 50 44 21 70 29 72 22 2 -6 11 -18 19 -27 9 -8 18 -35
20 -58 l5 -43 -48 8 c-27 4 -64 8 -83 8 -28 1 -31 -1 -22 -13 9 -10 27 -13 71
-9 68 7 73 0 34 -46 l-26 -31 24 -20 c32 -27 53 -36 138 -61 41 -13 77 -26 80
-29 3 -3 43 -7 90 -8 l85 -3 -179 60 c-252 84 -243 70 13 -20 35 -13 59 -25
52 -27 -6 -2 -70 17 -140 43 -106 38 -128 50 -124 64 7 18 76 98 81 93 3 -4
280 250 281 258 1 3 -24 18 -55 33 -49 24 -55 30 -52 55 3 26 1 27 -49 30 -37
2 -53 -1 -53 -9 0 -9 -3 -10 -10 -3 -5 5 -10 33 -11 62 -2 57 -4 60 -13 36z"/>
<path d="M1598 675 c-3 -3 -34 -12 -69 -19 l-64 -13 -6 -41 c-3 -22 -2 -39 2
-36 4 2 9 -2 12 -8 2 -7 9 3 14 22 6 19 15 34 22 33 6 -2 11 1 11 7 0 5 15 12
34 16 32 5 83 44 59 44 -5 0 -12 -2 -15 -5z"/>
<path d="M350 581 c0 -21 4 -51 9 -67 5 -16 12 -59 15 -96 4 -56 3 -68 -9 -68
-8 0 -15 7 -15 15 0 11 -16 6 -62 -19 -35 -19 -89 -39 -120 -46 -47 -9 -58
-15 -58 -31 0 -10 -9 -28 -21 -40 l-21 -21 -20 22 c-11 12 -22 19 -25 16 -9
-9 16 -34 40 -42 21 -6 38 -20 145 -112 24 -20 47 -37 53 -37 5 0 20 -14 34
-30 23 -29 24 -29 25 -7 0 13 4 20 10 17 6 -4 8 -10 5 -15 -3 -5 -1 -11 4 -14
5 -3 11 0 14 7 2 6 -36 46 -86 87 -126 104 -142 117 -133 101 6 -9 5 -12 -4
-9 -7 2 -14 13 -16 24 -3 20 -7 18 297 135 l86 33 -5 96 c-2 52 -5 96 -7 98
-1 1 -28 -7 -60 -18 -32 -11 -60 -20 -63 -20 -2 0 -2 18 0 40 2 22 0 40 -4 40
-5 0 -8 -17 -8 -39z m94 -78 c-17 -13 -17 -14 11 -7 27 7 29 6 16 -9 -7 -9
-11 -26 -8 -38 4 -15 2 -19 -9 -15 -23 9 -16 -20 9 -32 16 -8 18 -11 5 -11 -9
-1 -24 6 -32 15 -15 14 -16 14 -16 -3 0 -13 -5 -10 -19 12 -10 17 -14 32 -9
33 4 2 5 9 2 14 -4 7 -2 8 5 4 6 -4 9 -11 6 -16 -3 -5 0 -12 6 -16 12 -7 10
11 -6 63 -6 17 -2 22 17 25 34 6 44 -3 22 -19z m-129 -462 c-4 -4 -175 137
-175 145 0 3 40 -28 89 -68 49 -40 88 -75 86 -77z"/>
<path d="M2708 613 c6 -2 12 -15 12 -27 0 -28 19 -87 33 -101 6 -7 7 5 3 35
-4 25 -11 49 -17 55 -5 5 -9 17 -9 27 0 11 -7 18 -17 17 -11 0 -13 -3 -5 -6z"/>
<path d="M265 580 c-27 -10 -75 -21 -105 -25 -99 -11 -98 -10 -101 -59 -2 -24
-1 -42 4 -39 4 2 7 11 7 19 0 8 5 14 10 14 6 0 10 7 10 15 0 9 9 15 24 15 14
0 28 5 31 10 4 6 11 8 16 4 6 -3 22 -1 37 4 15 5 46 15 68 21 23 6 45 18 48
26 3 8 4 14 3 14 -1 -1 -24 -9 -52 -19z"/>
<path d="M2812 580 c-47 -11 -51 -20 -11 -20 19 0 40 5 47 12 18 18 25 2 14
-31 -8 -23 -7 -31 3 -35 8 -3 17 -1 20 4 4 6 1 10 -5 10 -7 0 -9 12 -4 35 7
39 2 41 -64 25z"/>
<path d="M1240 530 c-15 -28 -80 -59 -155 -75 -35 -7 -68 -16 -74 -20 -6 -3
-11 -26 -11 -50 0 -36 -4 -45 -21 -50 -15 -5 -18 -10 -9 -15 8 -5 7 -9 -5 -14
-9 -3 -14 -9 -12 -13 3 -5 -6 -9 -19 -9 -20 -2 -24 3 -24 29 l0 31 -32 -31
c-43 -41 -125 -78 -217 -98 -89 -19 -91 -20 -91 -54 0 -22 -8 -31 -42 -49 -40
-21 -38 -24 4 -7 10 4 18 3 18 -2 0 -5 -42 -29 -92 -55 -86 -43 -90 -47 -55
-46 20 1 37 5 37 10 0 13 54 9 70 -4 8 -7 6 -3 -4 10 -21 24 -20 27 9 36 24 7
53 -8 36 -18 -16 -10 -13 -36 4 -36 12 0 15 13 15 60 0 55 3 64 33 94 21 21
48 36 73 40 60 11 134 37 134 47 0 5 7 9 15 9 8 0 24 14 37 30 25 34 40 24 31
-22 -3 -17 0 -33 10 -42 18 -19 28 -10 21 19 -5 19 -1 22 20 23 15 0 29 -4 32
-9 3 -5 1 -9 -4 -9 -11 0 -3 -48 9 -56 14 -8 10 -34 -5 -34 -7 0 -25 9 -40 21
l-26 20 1 -53 c0 -71 12 -131 25 -135 6 -2 14 5 17 17 3 13 0 20 -9 20 -8 0
-14 9 -14 20 0 12 5 17 14 14 8 -3 17 -1 21 5 3 6 -1 11 -9 11 -15 0 -42 38
-33 47 3 2 20 -3 37 -12 25 -13 35 -14 44 -5 7 8 7 14 1 16 -10 4 -9 175 1
204 4 13 6 13 14 0 8 -13 10 -12 11 3 1 9 3 22 4 27 1 6 3 18 4 28 1 14 17 23
64 36 34 9 80 31 101 48 l39 31 -6 -56 c-6 -48 -5 -56 8 -51 8 4 15 10 15 14
0 5 3 16 7 26 5 13 3 15 -7 9 -10 -6 -12 2 -6 43 7 55 3 64 -14 32z"/>
<path d="M1384 538 c-3 -4 3 -5 13 -2 10 3 7 -1 -7 -10 -14 -8 -34 -13 -45
-10 -13 4 -16 2 -7 -3 9 -7 2 -14 -22 -26 -48 -22 -44 -49 11 -76 24 -11 43
-27 43 -34 0 -19 36 -50 52 -44 8 3 2 9 -14 16 -16 6 -28 18 -28 27 0 12 4 14
13 6 20 -16 57 -24 57 -13 0 15 -63 40 -71 29 -3 -5 -11 11 -18 36 -14 57 -15
53 10 59 28 8 51 -3 45 -20 -6 -14 13 -53 26 -53 5 0 8 21 8 46 0 41 -2 45
-20 39 -11 -4 -20 -2 -20 4 0 6 9 11 20 11 11 0 20 6 20 13 0 15 -57 19 -66 5z
m-40 -84 c9 -24 0 -28 -23 -12 -12 8 -18 18 -14 21 12 12 31 7 37 -9z"/>
<path d="M1720 503 c0 -5 4 -13 8 -20 9 -14 52 -6 52 9 0 6 -11 7 -26 4 -17
-5 -23 -3 -19 4 3 5 1 10 -4 10 -6 0 -11 -3 -11 -7z"/>
<path d="M690 491 c0 -11 -85 -47 -132 -56 -23 -4 -38 -13 -41 -25 -5 -18 -1
-18 57 4 131 50 145 57 139 72 -6 15 -23 19 -23 5z"/>
<path d="M2840 420 c-7 -92 -6 -96 31 -109 25 -9 28 -14 23 -38 -4 -20 -1 -33
10 -42 13 -11 14 -9 11 16 -2 15 -4 36 -4 45 -1 10 -18 26 -38 37 -25 13 -32
20 -19 21 14 0 16 3 8 13 -6 7 -12 40 -14 72 l-3 60 -5 -75z"/>
<path d="M2690 470 c0 -5 6 -10 14 -10 9 0 12 -7 9 -19 -3 -13 -11 -17 -25
-13 -18 4 -19 3 -9 -17 7 -11 8 -21 4 -21 -4 0 0 -6 9 -12 9 -7 19 -28 23 -46
6 -31 6 -32 -18 -23 -24 9 -25 8 -25 -27 0 -54 -10 -120 -22 -142 -6 -11 -24
-27 -41 -36 -17 -8 -28 -18 -25 -21 7 -7 66 17 63 26 -1 3 3 8 8 11 6 3 11
-20 13 -57 4 -94 22 -76 23 25 1 48 3 80 6 72 2 -8 45 -35 96 -61 79 -38 92
-49 95 -72 3 -25 32 -40 32 -17 0 6 -4 10 -10 10 -5 0 -10 9 -10 20 0 13 -28
37 -100 80 -92 57 -100 64 -100 93 0 18 -3 42 -6 55 -5 16 -3 22 7 20 8 -2 17
-7 21 -13 11 -15 9 67 -1 85 -6 8 -7 18 -4 24 3 5 7 29 8 52 1 37 -2 44 -17
44 -10 0 -18 -4 -18 -10z"/>
<path d="M23 428 c-24 -12 -32 -40 -10 -35 6 1 11 -6 11 -15 -1 -10 4 -18 11
-18 13 0 13 -59 1 -79 -7 -12 21 -28 30 -18 8 8 -7 177 -15 176 -3 0 -16 -5
-28 -11z"/>
<path d="M1727 433 c-10 -9 -9 -43 2 -43 13 0 23 32 13 42 -5 5 -11 5 -15 1z"/>
<path d="M718 423 c-20 -5 -24 -23 -5 -23 6 1 23 7 37 15 22 12 22 14 5 13
-11 0 -28 -2 -37 -5z"/>
<path d="M1282 321 c4 -76 7 -83 48 -135 43 -57 65 -76 36 -32 -10 15 -12 27
-6 31 17 10 11 25 -10 25 -26 0 -43 32 -27 50 10 10 8 12 -5 7 -19 -7 -19 -8
-22 80 0 29 -5 53 -10 53 -5 0 -7 -36 -4 -79z"/>
<path d="M1217 370 c-4 -14 -6 -47 -5 -75 3 -49 3 -50 -45 -82 -27 -18 -66
-37 -88 -43 -59 -16 -47 -28 19 -17 37 6 66 18 83 33 14 13 30 24 35 24 6 0
19 7 30 16 10 8 14 13 7 10 -11 -6 -13 6 -26 129 -3 30 -3 30 -10 5z"/>
<path d="M2043 383 c-20 -7 -15 -23 6 -23 25 0 47 25 23 27 -9 0 -23 -2 -29
-4z"/>
<path d="M1495 360 c-12 -4 -27 -16 -35 -26 -9 -11 -10 -15 -2 -10 6 4 12 2
12 -3 0 -6 5 -11 11 -11 6 0 9 8 7 18 -3 11 6 21 27 29 16 6 23 12 15 12 -8 0
-24 -4 -35 -9z"/>
<path d="M2760 329 c0 -6 9 -8 20 -4 14 5 20 2 20 -9 0 -10 -9 -16 -25 -16
-14 0 -25 -4 -25 -10 0 -15 22 -12 47 5 13 9 20 22 17 30 -7 17 -54 21 -54 4z"/>
<path d="M2500 272 c0 -14 -10 -36 -22 -49 -18 -19 -19 -23 -5 -23 9 0 19 5
23 11 4 8 9 7 16 -2 6 -10 7 -7 3 9 -5 18 -2 22 15 22 17 0 20 -4 15 -20 -3
-11 -2 -20 3 -20 11 0 26 -49 18 -57 -9 -9 -106 28 -106 40 0 7 -5 4 -11 -6
-7 -12 -6 -25 4 -45 10 -20 11 -33 3 -44 -8 -13 -6 -22 7 -36 9 -10 17 -26 17
-35 0 -10 8 -17 18 -17 14 0 17 7 14 40 -3 29 0 40 9 40 8 0 -1 9 -18 20 -38
23 -45 45 -10 34 12 -5 36 -8 52 -9 l30 0 3 67 3 67 -41 20 -40 19 0 -26z"/>
<path d="M2782 243 c7 -16 16 -34 21 -40 7 -10 -2 -13 -39 -13 -39 -1 -45 -3
-31 -11 10 -6 25 -8 33 -5 8 3 12 2 9 -3 -7 -12 35 -42 48 -34 6 3 2 12 -9 21
-13 10 -15 16 -6 19 14 5 17 33 3 33 -5 0 -9 6 -8 13 1 33 -4 47 -18 47 -12 0
-13 -5 -3 -27z"/>
<path d="M2342 173 c-9 -21 -21 -41 -26 -44 -4 -4 -5 -17 -1 -30 5 -18 4 -20
-4 -9 -9 12 -11 12 -17 -3 -3 -9 -10 -15 -14 -12 -4 3 -7 -8 -6 -24 1 -17 -1
-28 -5 -25 -4 2 -12 -3 -19 -11 -10 -13 -8 -15 13 -15 17 0 27 7 31 23 l7 22
9 -22 c14 -34 20 -28 19 19 -1 75 19 133 50 143 27 8 27 25 1 25 -14 0 -26
-12 -38 -37z"/>
<path d="M1211 172 l-19 -27 44 -50 c27 -31 44 -44 44 -34 0 9 -9 23 -20 30
-11 8 -23 28 -26 45 -5 26 -3 31 13 29 28 -2 45 -15 39 -31 -4 -9 2 -14 17
-14 13 0 30 -6 37 -12 8 -7 -1 4 -20 25 -19 21 -47 44 -62 52 -26 12 -29 12
-47 -13z"/>
<path d="M865 139 c-10 -42 -1 -139 12 -139 10 0 11 19 6 78 -6 86 -9 95 -18
61z"/>
<path d="M1133 111 c-51 -30 -60 -58 -13 -34 17 8 37 12 45 9 18 -6 20 10 3
20 -8 5 -6 9 7 14 10 4 14 9 9 12 -5 3 -28 -6 -51 -21z"/>
<path d="M1381 101 c-27 -37 -26 -53 2 -70 20 -13 21 -13 8 2 -11 14 -11 23 3
57 19 47 15 51 -13 11z"/>
</g>
</svg>
