<?xml version="1.0" encoding="utf-8"?><svg version="1.1" id="Layer_1" xmlns="http://www.w3.org/2000/svg" xmlns:xlink="http://www.w3.org/1999/xlink" x="0px" y="0px" viewBox="0 0 122.88 63.86" style="enable-background:new 0 0 122.88 63.86" xml:space="preserve"><style type="text/css">.st0{fill-rule:evenodd;clip-rule:evenodd;}</style><g><path class="st0" d="M7.23,0h111.93c2.05,0,3.72,1.68,3.72,3.72v31.62c0,2.04-1.68,3.72-3.72,3.72H34.18 c-0.83-0.7-1.9-1.21-3.3-1.45c-0.11-0.03-0.23-0.05-0.35-0.07l-0.04,0c-0.21-0.38-0.46-0.73-0.76-1.06 c-0.86-0.95-2.03-1.63-3.62-1.91l-0.07-0.02c-0.09-0.02-0.19-0.04-0.29-0.05c-0.16-0.02-0.3-0.03-0.42-0.03h-0.05 c-0.15-0.23-0.32-0.44-0.51-0.65c-0.06-0.07-0.12-0.14-0.19-0.21c-6.38-6.38-0.43-0.99-4.1-7.86c-0.77-1.44-1.9-2.49-3.17-3.14 c-0.48-0.24-1-0.43-1.54-0.56c-0.56-0.14-1.11-0.2-1.62-0.2c-0.54,0-1.09,0.06-1.63,0.19c-0.46,0.11-0.91,0.27-1.36,0.48 l-0.19,0.09c-1.27,0.65-2.39,1.7-3.15,3.16c-0.63,1.2-1.01,2.67-1.01,4.37v7.98c-0.19-0.11-0.38-0.21-0.57-0.31 c-0.59-0.29-1.18-0.5-1.77-0.63l-0.14-0.03c-0.12-0.02-0.24-0.04-0.36-0.06c-0.28-0.52-0.44-1.12-0.44-1.75V3.72 C3.51,1.68,5.18,0,7.23,0L7.23,0z M9.63,46.06c-0.05-0.03-0.1-0.06-0.15-0.1c-0.63-0.5-1.31-1.06-1.91-1.55 c-0.86-0.71-1.86-1.53-2.56-2.11c-0.48-0.4-1.02-0.67-1.53-0.77c-0.33-0.06-0.63-0.06-0.86,0.04c-0.19,0.08-0.35,0.23-0.47,0.48 c-0.14,0.32-0.21,0.77-0.17,1.39c0.04,0.54,0.22,1.14,0.48,1.71c0.37,0.85,0.88,1.62,1.25,2.12c0.02,0.03,0.04,0.06,0.06,0.09 l7.5,10.71c0.1,0.14,0.15,0.29,0.17,0.45h0c0.15,1.24,0.41,2.16,0.8,2.74c0.28,0.42,0.65,0.64,1.1,0.62h0.02v0h11.69 c0.03,0,0.05,0,0.08,0c0.73-0.01,1.4-0.23,2.01-0.65c0.67-0.46,1.28-1.18,1.84-2.15c0.01-0.02,0.02-0.04,0.03-0.05 c0.22-0.37,0.5-0.84,0.77-1.29c1.2-1.97,2.24-3.68,2.36-6.12l-0.08-3.37c-0.01-0.05-0.01-0.1-0.01-0.14c0-0.04,0.01-0.36,0.01-0.79 c0.03-2.22,0.06-4.98-1.97-5.32h-1.3h-0.01c-0.01,0.63-0.05,1.26-0.09,1.88c-0.04,0.55-0.07,1.08-0.07,1.59 c0,0.55-0.44,0.99-0.99,0.99c-0.55,0-0.99-0.44-0.99-0.99c0-0.51,0.04-1.1,0.08-1.71c0.13-2.09,0.29-4.5-1.39-4.8h-1.3 c-0.07,0-0.14-0.01-0.21-0.02c0.01,0.76-0.04,1.55-0.09,2.3c-0.04,0.55-0.07,1.08-0.07,1.59c0,0.55-0.44,0.99-0.99,0.99 s-0.99-0.44-0.99-0.99c0-0.51,0.04-1.1,0.08-1.71c0.13-2.09,0.29-4.5-1.39-4.8h-1.3c-0.09,0-0.18-0.01-0.26-0.04v3.83 c0,0.55-0.44,0.99-0.99,0.99c-0.55,0-0.99-0.44-0.99-0.99V29.85c0-1.72-0.7-2.81-1.6-3.26c-0.33-0.17-0.68-0.25-1.03-0.25 c-0.35,0-0.7,0.08-1.03,0.25c-0.89,0.45-1.58,1.54-1.58,3.3v18c0,0.55-0.44,0.99-0.99,0.99c-0.55,0-0.99-0.44-0.99-0.99L9.63,46.06 L9.63,46.06L9.63,46.06z M18.83,34.38c0.08-0.02,0.17-0.04,0.26-0.04h1.36c0.08,0,0.15,0.01,0.22,0.03 c1.82,0.28,2.63,1.34,2.96,2.71c0.13-0.06,0.27-0.09,0.42-0.09h1.36c0.08,0,0.15,0.01,0.22,0.03c1.95,0.3,2.74,1.51,3.02,3.02 c0.05-0.01,0.1-0.01,0.15-0.01h1.36c0.08,0,0.15,0.01,0.22,0.03c3.74,0.58,3.7,4.3,3.66,7.3c0,0.11,0,0.22,0,0.76v0.02l0.08,3.46 c0,0.04,0,0.07,0,0.11c-0.14,2.94-1.31,4.86-2.65,7.06c-0.23,0.37-0.45,0.75-0.75,1.26c-0.01,0.01-0.01,0.03-0.02,0.04 c-0.7,1.22-1.51,2.16-2.43,2.79c-0.94,0.65-1.98,0.98-3.12,1c-0.03,0-0.06,0-0.09,0H13.36v0c-1.18,0.02-2.09-0.49-2.76-1.5 c-0.54-0.81-0.9-1.94-1.09-3.37L2.16,48.5c-0.01-0.01-0.02-0.03-0.03-0.04c-0.44-0.59-1.03-1.49-1.48-2.5 c-0.33-0.76-0.59-1.58-0.64-2.38c-0.06-0.95,0.07-1.72,0.34-2.32c0.34-0.75,0.87-1.23,1.52-1.5c0.61-0.25,1.29-0.28,1.98-0.14 c0.83,0.16,1.68,0.58,2.41,1.18c0.6,0.49,1.59,1.31,2.56,2.1l0.81,0.66V29.89c0-2.62,1.17-4.3,2.66-5.07 c0.6-0.31,1.26-0.46,1.92-0.46c0.66,0,1.32,0.15,1.92,0.46c1.51,0.76,2.69,2.45,2.69,5.02V34.38L18.83,34.38L18.83,34.38z M24.85,10.43h3.54c2.36,0,3.96,0.08,4.79,0.26c0.84,0.17,1.52,0.61,2.04,1.32c0.53,0.7,0.79,1.84,0.79,3.38 c0,1.41-0.19,2.37-0.56,2.85c-0.37,0.49-1.1,0.78-2.2,0.87c0.99,0.23,1.66,0.54,2,0.94c0.34,0.39,0.55,0.75,0.63,1.07 c0.08,0.33,0.13,1.22,0.13,2.69v4.8h-4.65v-6.05c0-0.97-0.08-1.58-0.24-1.81c-0.16-0.23-0.58-0.35-1.26-0.35v8.21h-5.01V10.43 L24.85,10.43z M29.86,13.53v4.05c0.56,0,0.95-0.07,1.17-0.22c0.22-0.15,0.34-0.62,0.34-1.42v-1c0-0.58-0.11-0.96-0.32-1.14 C30.83,13.62,30.43,13.53,29.86,13.53L29.86,13.53z M38.16,10.43h8.34v3.63h-3.33v3.47h3.11v3.45h-3.11v4h3.67v3.63h-8.68V10.43 L38.16,10.43z M59.06,15.95h-4.65V14.6c0-0.63-0.06-1.03-0.18-1.2c-0.12-0.17-0.31-0.26-0.59-0.26c-0.3,0-0.53,0.11-0.68,0.35 c-0.15,0.23-0.23,0.58-0.23,1.05c0,0.61,0.09,1.06,0.26,1.37c0.17,0.3,0.64,0.67,1.42,1.11c2.22,1.25,3.62,2.28,4.19,3.09 c0.58,0.8,0.87,2.09,0.87,3.87c0,1.3-0.16,2.25-0.48,2.87c-0.32,0.61-0.94,1.13-1.86,1.54c-0.92,0.42-1.98,0.62-3.2,0.62 c-1.34,0-2.48-0.24-3.43-0.72c-0.94-0.48-1.56-1.09-1.86-1.83c-0.29-0.74-0.44-1.8-0.44-3.16v-1.19h4.65v2.21 c0,0.68,0.06,1.12,0.19,1.31c0.13,0.2,0.36,0.29,0.69,0.29c0.33,0,0.58-0.12,0.74-0.37c0.16-0.25,0.24-0.61,0.24-1.1 c0-1.07-0.15-1.77-0.46-2.1c-0.32-0.33-1.1-0.88-2.34-1.66c-1.24-0.78-2.06-1.35-2.47-1.7c-0.4-0.35-0.74-0.84-1-1.46 c-0.26-0.62-0.4-1.41-0.4-2.38c0-1.39,0.19-2.41,0.56-3.06c0.38-0.64,0.98-1.15,1.82-1.51c0.84-0.36,1.85-0.54,3.04-0.54 c1.3,0,2.4,0.2,3.32,0.59c0.91,0.4,1.52,0.9,1.81,1.5c0.3,0.6,0.45,1.63,0.45,3.07V15.95L59.06,15.95z M61.28,10.43h8.34v3.63 h-3.33v3.47h3.11v3.45h-3.11v4h3.67v3.63h-8.68V10.43L61.28,10.43z M71.6,10.43h3.54c2.36,0,3.96,0.08,4.79,0.26 c0.84,0.17,1.52,0.61,2.04,1.32c0.53,0.7,0.79,1.84,0.79,3.38c0,1.41-0.19,2.37-0.56,2.85c-0.37,0.49-1.1,0.78-2.2,0.87 c0.99,0.23,1.66,0.54,2,0.94c0.34,0.39,0.55,0.75,0.63,1.07c0.09,0.33,0.13,1.22,0.13,2.69v4.8h-4.65v-6.05 c0-0.97-0.08-1.58-0.24-1.81c-0.16-0.23-0.58-0.35-1.26-0.35v8.21H71.6V10.43L71.6,10.43z M76.61,13.53v4.05 c0.56,0,0.95-0.07,1.17-0.22c0.22-0.15,0.34-0.62,0.34-1.42v-1c0-0.58-0.11-0.96-0.32-1.14C77.58,13.62,77.18,13.53,76.61,13.53 L76.61,13.53z M96.78,10.43l-2.53,18.19h-7.58l-2.9-18.19h5.28c0.6,5.02,1.03,9.26,1.3,12.73c0.27-3.51,0.54-6.62,0.82-9.34 l0.33-3.39H96.78L96.78,10.43z M97.86,10.43h8.34v3.63h-3.33v3.47h3.11v3.45h-3.11v4h3.67v3.63h-8.68V10.43L97.86,10.43z"/></g></svg>