<?xml version="1.0" standalone="no"?>
<!DOCTYPE svg PUBLIC "-//W3C//DTD SVG 20010904//EN"
 "http://www.w3.org/TR/2001/REC-SVG-20010904/DTD/svg10.dtd">
<svg version="1.0" xmlns="http://www.w3.org/2000/svg"
 width="300.000000pt" height="225.000000pt" viewBox="0 0 300.000000 225.000000"
 preserveAspectRatio="xMidYMid meet">
<metadata>
Created by potrace 1.10, written by Peter Selinger 2001-2011
</metadata>
<g transform="translate(0.000000,225.000000) scale(0.100000,-0.100000)"
fill="#ffffff" stroke="none">
<path d="M268 2203 c-3 -27 -1 -57 3 -68 6 -15 8 -12 8 16 1 20 4 51 7 68 4
18 2 31 -4 31 -5 0 -12 -21 -14 -47z"/>
<path d="M522 2188 c-30 -85 -27 -99 4 -19 13 36 23 69 21 74 -1 5 -13 -20
-25 -55z"/>
<path d="M752 2146 l-62 -104 -45 6 c-39 4 -45 2 -39 -12 3 -9 15 -21 26 -27
16 -8 19 -8 13 1 -11 17 15 30 37 19 10 -5 17 -6 16 -1 -2 5 26 54 61 111 35
56 62 104 59 106 -3 3 -32 -42 -66 -99z"/>
<path d="M989 2134 c-136 -168 -154 -191 -137 -174 33 31 168 193 168 202 0 5
6 6 13 2 6 -4 9 -3 4 1 -4 5 9 26 30 47 20 21 32 38 27 38 -6 0 -53 -52 -105
-116z"/>
<path d="M1313 2211 c-24 -21 -43 -43 -43 -48 0 -9 74 -74 100 -87 15 -8 -2 8
-62 59 l-33 28 50 43 c27 24 45 44 40 44 -6 -1 -29 -18 -52 -39z"/>
<path d="M1448 2199 l53 -56 -40 -27 c-21 -15 -46 -35 -55 -45 -14 -15 -12
-19 22 -45 l37 -28 -32 30 -31 30 41 33 c23 18 47 36 53 41 8 5 54 -33 134
-109 l122 -117 -46 -23 c-26 -13 -52 -21 -59 -17 -7 4 -1 -5 12 -19 26 -29 42
-38 21 -12 -15 18 -17 17 39 45 l44 22 101 -99 c56 -54 128 -123 161 -153 53
-48 -34 37 -419 411 l-89 86 56 39 c31 22 56 42 57 47 0 4 -28 -13 -62 -38
-34 -25 -64 -41 -67 -37 -3 4 -28 28 -56 52 l-50 44 53 -55z"/>
<path d="M1656 2230 c21 -31 74 -90 74 -83 -1 4 -20 28 -43 53 -23 25 -37 39
-31 30z"/>
<path d="M1888 2178 c177 -270 267 -398 281 -398 9 0 39 -37 69 -86 32 -52 47
-84 37 -80 -9 3 -13 2 -10 -4 3 -6 12 -10 19 -10 7 0 30 -27 51 -60 47 -72
107 -120 75 -60 -13 25 5 37 19 13 10 -16 12 -17 23 -2 7 9 19 14 27 11 9 -3
11 0 7 7 -4 7 -16 9 -27 6 -12 -4 -19 -2 -19 7 0 10 -2 10 -8 1 -5 -7 -30 38
-64 115 -271 604 -280 624 -292 611 -2 -2 36 -89 85 -194 49 -104 88 -196 87
-204 -7 -39 -31 -5 -126 175 -85 162 -100 199 -90 211 10 13 9 15 -6 12 -32
-7 -27 -40 19 -133 25 -49 42 -92 39 -97 -3 -5 -1 -9 4 -9 6 0 13 -8 16 -17 6
-15 4 -15 -14 2 -11 10 -20 24 -20 32 0 7 -4 13 -10 13 -5 0 -10 5 -10 11 0
19 -91 138 -111 144 -11 4 -27 17 -35 31 -10 14 -26 24 -40 24 -23 0 -22 -3
24 -72z m164 -187 c60 -95 106 -176 103 -179 -3 -3 -9 -1 -14 4 -15 16 -231
343 -231 350 0 3 7 4 16 2 10 -2 66 -81 126 -177z m259 -258 c57 -124 41 -141
-22 -24 -39 73 -47 96 -37 102 7 5 14 9 16 9 2 0 21 -39 43 -87z m77 -169 c13
-26 20 -49 17 -52 -6 -7 -5 -8 -39 51 -18 32 -23 47 -13 47 7 0 23 -21 35 -46z"/>
<path d="M2845 2210 c-22 -138 -128 -647 -136 -656 -5 -6 -36 -14 -69 -17 -33
-4 -71 -9 -83 -12 -20 -5 -25 -1 -34 32 l-11 38 5 -40 c3 -22 7 -42 9 -44 2
-2 43 2 91 9 84 12 122 24 133 41 3 4 40 14 83 22 66 13 77 13 73 1 -3 -8 -1
-14 3 -14 10 0 24 31 17 38 -3 2 -48 -4 -100 -15 -53 -10 -96 -18 -96 -16 0 2
18 88 41 191 22 103 42 198 44 212 2 14 13 76 25 138 12 62 20 118 17 125 -2
6 -7 -8 -12 -33z"/>
<path d="M2379 2178 c4 -13 16 -62 26 -111 10 -48 20 -85 22 -83 8 7 -40 216
-48 216 -5 0 -5 -10 0 -22z"/>
<path d="M2611 2153 c0 -17 5 -34 12 -36 7 -4 6 -6 -4 -6 -9 -1 -22 -8 -29
-16 -11 -14 -9 -14 16 0 58 30 83 14 42 -26 l-23 -21 34 17 c18 9 36 25 38 36
3 10 10 16 17 12 6 -3 7 -2 3 3 -5 5 -27 9 -50 9 -38 0 -42 3 -48 30 l-7 30
-1 -32z"/>
<path d="M1214 2118 c-35 -37 -36 -39 -8 -20 35 24 59 50 52 57 -2 3 -22 -14
-44 -37z"/>
<path d="M1751 2137 c-8 -11 0 -26 38 -67 30 -34 48 -48 48 -37 0 9 -4 14 -8
12 -4 -3 -23 14 -42 37 -26 32 -33 46 -25 55 6 7 8 13 5 13 -2 0 -10 -6 -16
-13z"/>
<path d="M257 2090 c-4 -14 -6 -47 -6 -75 l2 -50 8 65 c9 69 7 101 -4 60z"/>
<path d="M1885 1958 c53 -63 69 -76 33 -28 -21 30 -22 30 -2 46 18 14 18 15
-4 4 -20 -10 -28 -8 -50 12 -14 12 -4 -3 23 -34z"/>
<path d="M1477 1989 c7 -9 9 -20 5 -25 -4 -5 -3 -6 2 -2 5 4 22 -2 37 -13 22
-16 28 -26 25 -46 -3 -14 -2 -23 1 -19 17 17 11 46 -13 65 -23 18 -25 23 -13
38 13 16 12 17 -3 4 -15 -11 -21 -11 -35 0 -16 12 -17 12 -6 -2z"/>
<path d="M2613 1930 c0 -36 2 -50 4 -32 2 17 2 47 0 65 -2 17 -4 3 -4 -33z"/>
<path d="M2968 1922 c-15 -36 -26 -67 -24 -69 2 -2 16 26 31 62 16 36 26 67
24 69 -2 2 -16 -26 -31 -62z"/>
<path d="M774 1875 c-31 -36 -55 -67 -53 -69 2 -2 30 27 61 65 32 38 56 69 54
69 -2 0 -30 -29 -62 -65z"/>
<path d="M1357 1882 c-35 -24 -25 -35 13 -14 27 15 29 15 70 -12 57 -38 72
-28 17 12 -52 37 -62 38 -100 14z"/>
<path d="M588 1868 c-8 -13 -24 -41 -37 -63 -26 -47 3 -10 37 47 24 40 24 54
0 16z"/>
<path d="M1282 1828 c-21 -11 -18 -14 50 -49 87 -47 104 -45 19 2 -53 29 -58
34 -43 46 21 15 5 16 -26 1z"/>
<path d="M2901 1764 c-17 -43 -29 -79 -27 -81 2 -2 17 31 35 73 17 43 29 79
27 81 -2 2 -17 -31 -35 -73z"/>
<path d="M1630 1790 c6 -11 17 -20 25 -20 8 0 15 -4 15 -10 0 -5 16 -12 35
-16 l35 -6 0 -83 c0 -92 -3 -97 -67 -114 -35 -10 -43 -16 -43 -35 0 -37 42
-47 123 -29 59 13 67 18 67 38 0 13 -7 26 -16 29 -26 10 -28 7 -8 -15 19 -22
19 -22 -8 -16 -14 4 -34 10 -44 14 -11 4 -15 3 -10 -5 3 -6 1 -14 -5 -18 -7
-4 -9 -3 -6 3 4 6 -3 14 -16 18 -19 6 -16 9 26 23 42 14 63 32 37 32 -6 0 -10
35 -10 84 l0 83 -40 7 c-27 4 -45 14 -56 31 -20 31 -50 35 -34 5z"/>
<path d="M479 1679 c-15 -29 -6 -34 84 -54 50 -11 77 -22 77 -31 0 -8 6 -11
15 -8 8 4 12 10 9 16 -3 5 2 15 12 23 16 12 9 16 -71 40 -50 14 -96 28 -102
30 -7 2 -18 -5 -24 -16z m131 -33 c8 -3 18 -5 23 -5 4 -1 7 -5 7 -10 0 -10
-26 -9 -36 2 -4 4 -20 7 -36 7 -15 0 -28 5 -28 11 0 10 16 9 70 -5z"/>
<path d="M2612 1663 c-6 -2 -10 -8 -7 -13 5 -8 62 3 73 15 7 6 -49 5 -66 -2z"/>
<path d="M879 1616 c-14 -10 -1 -16 78 -39 88 -26 130 -47 117 -59 -2 -3 2
-11 11 -18 18 -15 20 -93 3 -108 -7 -5 -21 -11 -31 -13 -28 -6 -25 -22 5 -30
22 -6 26 -4 23 12 -5 26 12 24 20 -2 4 -12 14 -19 23 -17 21 4 29 38 9 38 -19
0 -27 22 -27 75 0 29 -5 45 -15 49 -8 3 -12 11 -9 19 4 11 56 -1 237 -55 128
-37 250 -73 272 -80 l40 -11 -30 -8 c-30 -7 -30 -7 7 -8 21 0 43 5 50 12 8 9
28 12 60 9 36 -3 48 -1 48 9 0 11 -12 13 -47 10 -27 -2 -53 -7 -59 -12 -7 -5
-32 -2 -65 9 -34 12 -48 21 -39 25 8 3 2 3 -14 0 -19 -4 -27 -2 -23 4 4 6 -2
13 -13 16 -11 3 -20 1 -20 -3 0 -4 -9 -6 -21 -3 -16 5 -18 8 -7 15 9 6 6 7 -9
3 -26 -7 -170 34 -153 45 6 4 -8 12 -34 20 -25 7 -43 16 -41 20 3 5 -5 6 -17
2 -21 -5 -20 -6 9 -16 52 -18 50 -27 -3 -11 -27 8 -97 29 -155 46 -85 25 -106
35 -102 48 3 12 -4 16 -29 18 -18 1 -41 -4 -49 -11z"/>
<path d="M970 1612 c0 -7 94 -42 113 -42 4 0 7 5 7 12 0 6 -3 9 -6 5 -3 -3
-26 3 -51 14 -49 21 -63 23 -63 11z"/>
<path d="M2775 1503 c-93 -14 -173 -30 -176 -35 -4 -6 -22 -7 -40 -4 -26 5
-29 4 -14 -4 14 -6 5 -8 -32 -3 -43 4 -53 3 -53 -10 0 -24 -64 -39 -72 -16 -4
13 -579 -66 -589 -82 -3 -6 -20 -8 -40 -4 -32 5 -316 -29 -327 -40 -3 -3 0 -5
7 -5 10 0 12 -29 8 -127 -2 -71 -2 -102 0 -70 4 52 6 57 27 57 22 0 23 -3 18
-49 -4 -41 -1 -51 14 -59 25 -13 231 -26 287 -18 l45 7 -9 37 c-5 20 -9 49 -9
65 0 22 4 27 25 27 27 0 33 14 11 27 -8 5 -15 32 -18 65 -4 52 -2 59 18 73 13
8 33 15 45 15 19 0 21 -4 15 -42 -4 -24 -9 -59 -12 -78 -3 -19 -7 -41 -9 -47
-2 -7 0 -13 5 -13 12 0 13 -55 1 -96 l-9 -31 82 -16 c44 -8 121 -16 170 -17
49 0 94 -3 98 -6 11 -7 279 -7 286 0 2 3 0 11 -5 18 -6 7 -13 45 -15 85 -6 84
-7 84 90 81 64 -2 64 -2 15 -5 l-53 -4 0 -104 0 -103 40 -7 c39 -7 40 -8 40
-46 0 -21 -4 -39 -8 -39 -4 0 -158 16 -342 35 -184 20 -407 42 -495 51 -88 8
-198 19 -245 24 -47 6 -88 10 -92 10 -4 0 -5 7 -2 15 5 11 -1 15 -25 15 -17 0
-31 -4 -31 -10 0 -5 -4 -10 -10 -10 -14 0 -12 27 3 33 6 3 -14 6 -45 6 l-58 1
0 -31 c0 -47 19 -59 92 -58 35 1 53 4 40 6 -17 3 -22 10 -20 25 4 28 26 35 35
11 13 -34 29 -42 89 -40 92 3 339 -19 359 -32 6 -3 37 -7 70 -8 82 -2 290 -45
403 -83 93 -31 187 -80 253 -131 50 -39 68 -102 44 -152 -19 -40 -114 -111
-129 -97 -5 5 -20 3 -35 -4 -51 -26 -197 -67 -306 -86 -123 -21 -416 -43 -426
-32 -3 4 -27 57 -53 117 -26 61 -51 113 -55 117 -10 11 -8 -34 2 -50 5 -6 6
-16 2 -21 -3 -5 1 -16 9 -24 8 -8 12 -17 9 -21 -4 -3 -1 -6 6 -6 8 0 11 -8 8
-20 -3 -11 -2 -18 2 -15 4 2 15 -14 25 -35 10 -22 22 -40 27 -40 5 0 9 -6 9
-14 0 -8 5 -18 12 -22 7 -5 8 -3 3 6 -6 9 -4 11 4 6 7 -5 10 -15 7 -23 -3 -8
-2 -12 3 -9 4 3 16 -3 25 -13 13 -15 14 -20 4 -24 -7 -3 -3 -6 10 -6 19 -1 22
-6 23 -48 1 -39 2 -43 9 -23 5 15 8 18 9 8 1 -9 4 -24 8 -34 4 -12 3 -15 -5
-10 -7 4 -12 3 -12 -2 0 -12 29 -37 35 -30 9 9 -15 122 -27 129 -10 7 -10 13
1 31 l14 23 -23 -20 c-13 -11 -20 -15 -17 -8 4 6 3 14 -3 18 -5 3 -10 15 -10
26 0 13 7 19 23 19 12 0 101 7 197 16 137 12 179 12 197 3 17 -9 26 -9 37 0 8
7 19 10 24 7 6 -3 16 2 23 11 13 15 11 16 -16 9 -16 -4 -26 -4 -22 0 13 14 98
35 177 44 107 13 150 29 150 53 0 11 3 17 7 14 10 -10 53 33 53 53 0 35 53 63
76 40 7 -7 17 -1 31 18 l21 28 -47 -16 c-25 -8 -50 -18 -56 -22 -6 -3 -11 8
-13 28 -2 36 21 94 38 94 6 0 10 5 10 11 0 6 -14 1 -30 -11 l-31 -22 -20 26
c-11 14 -27 26 -35 26 -11 0 -12 4 -4 19 13 25 13 42 -1 19 -13 -23 -19 -23
-53 7 -16 14 -35 25 -43 25 -7 0 -16 7 -19 15 -4 8 -10 12 -15 9 -5 -3 -19 2
-31 10 -12 9 -33 16 -45 16 -15 0 -23 6 -23 18 0 14 -2 15 -10 2 -8 -13 -11
-13 -27 3 -16 16 -16 17 7 17 14 0 86 -7 160 -15 74 -8 139 -15 143 -15 5 0 5
9 2 20 -3 11 -3 30 0 41 6 18 13 20 44 16 71 -12 218 -17 186 -7 -23 7 -12 8
43 5 l72 -4 0 130 0 129 -52 0 c-234 2 -423 12 -430 23 -4 7 -8 44 -8 82 1
103 0 106 -23 94 -23 -13 -32 -6 -23 17 4 10 13 14 25 11 11 -3 28 1 38 8 10
7 49 15 87 18 41 4 75 12 86 22 11 10 65 21 158 33 78 9 142 20 142 24 0 12
-37 8 -225 -19z m-390 -104 c11 -17 1 -20 -102 -29 -54 -5 -118 -12 -142 -16
-29 -5 -42 -4 -38 3 4 6 23 13 44 17 21 3 72 12 113 20 97 17 117 18 125 5z
m102 -209 l-2 -170 -36 0 c-51 0 -392 19 -468 26 l-64 6 7 121 c3 66 8 122 11
125 2 2 111 15 242 28 212 20 281 27 305 33 4 0 7 -75 5 -169z m-987 94 c0
-18 -27 -48 -33 -37 -7 12 11 53 23 53 5 0 10 -7 10 -16z m310 -114 l0 -119
-147 6 c-82 3 -150 7 -152 9 -3 2 -5 46 -5 98 l-1 94 130 12 c72 6 135 13 140
15 33 11 35 5 35 -115z m1180 -66 c0 -61 -1 -66 -20 -61 -11 3 -18 1 -14 -4 3
-5 -2 -9 -10 -9 -8 0 -20 -8 -25 -17 -6 -10 -11 -13 -11 -6 0 12 -42 20 -138
28 -31 2 -50 0 -47 -6 4 -5 -4 -9 -17 -9 -25 0 -82 33 -73 42 3 3 -7 3 -22 0
-17 -3 -22 -7 -13 -10 8 -2 20 -11 27 -20 9 -10 34 -16 85 -18 40 -1 80 -5 88
-7 8 -3 48 -8 89 -12 54 -5 71 -3 66 5 -5 8 -1 11 11 8 12 -2 20 -13 22 -31 4
-33 22 -32 -223 -4 l-190 23 0 47 c0 26 3 47 8 47 6 0 6 5 0 13 -5 6 -10 24
-12 40 l-2 27 210 0 211 0 0 -66z m-1630 -105 c0 -17 -4 -28 -10 -24 -5 3 -10
17 -10 31 0 13 5 24 10 24 6 0 10 -14 10 -31z"/>
<path d="M2128 1117 c12 -14 63 -30 59 -18 -1 3 3 6 8 6 6 0 9 -3 8 -7 -2 -5
47 -8 109 -8 131 0 137 10 11 17 -48 3 -90 8 -93 12 -3 4 -29 9 -59 10 -47 2
-53 1 -43 -12z"/>
<path d="M2010 1110 c0 -13 102 -22 113 -11 8 8 -1 11 -28 12 -22 1 -50 3 -62
4 -13 1 -23 -1 -23 -5z"/>
<path d="M1560 1123 c0 -18 36 -25 75 -14 21 5 35 6 35 0 0 -5 21 -9 48 -9 31
0 42 3 33 9 -8 5 -24 8 -37 6 -13 -1 -24 1 -24 4 0 4 -16 8 -35 9 -19 2 -35
-2 -35 -8 0 -14 -33 -13 -48 2 -9 9 -12 9 -12 1z"/>
<path d="M2788 1153 c-43 -4 -48 -7 -48 -29 0 -25 14 -32 26 -13 3 6 15 9 25
6 12 -3 19 0 19 9 0 8 7 14 15 14 8 0 15 5 15 10 0 6 -1 9 -2 8 -2 -1 -24 -3
-50 -5z"/>
<path d="M2898 1149 c-25 -14 -23 -38 2 -32 11 3 20 14 20 24 0 22 1 22 -22 8z"/>
<path d="M2833 1120 c5 -19 -14 -39 -30 -33 -7 3 -13 0 -13 -6 0 -6 10 -11 23
-12 21 0 21 -1 2 -9 -19 -8 -19 -9 1 -9 16 -1 23 6 27 27 3 15 1 34 -4 42 -9
13 -10 13 -6 0z"/>
<path d="M2660 1091 l-25 -7 25 -14 c14 -8 48 -15 75 -16 28 -1 41 1 30 3 -11
3 -25 10 -32 15 -7 5 -21 7 -32 3 -16 -5 -20 -3 -15 9 3 9 5 16 3 15 -2 -1
-15 -4 -29 -8z"/>
<path d="M2867 1061 c-3 -14 2 -21 17 -25 31 -8 33 -8 40 10 5 12 2 15 -9 10
-9 -3 -18 1 -21 9 -8 21 -21 19 -27 -4z"/>
<path d="M2161 1459 c-69 -13 -72 -20 -6 -13 33 3 64 10 70 15 11 11 -2 10
-64 -2z"/>
<path d="M51 1403 c1 -32 3 -49 6 -38 14 69 10 65 66 66 l52 1 -40 9 c-22 5
-50 11 -62 14 -22 5 -23 3 -22 -52z"/>
<path d="M805 1451 c-11 -5 -24 -6 -29 -3 -5 3 -6 0 -3 -5 4 -6 33 -14 64 -19
86 -12 93 -12 93 -3 0 5 -12 10 -27 11 -16 1 -35 2 -43 4 -8 1 -22 2 -30 3
-13 1 -13 2 0 11 18 12 3 12 -25 1z"/>
<path d="M201 1301 c4 -75 7 -191 8 -258 l1 -123 -49 0 c-31 0 -55 -6 -65 -15
-8 -8 -23 -15 -34 -15 -18 0 -19 -7 -18 -77 1 -74 0 -78 -22 -81 -12 -2 -22
-8 -22 -13 0 -12 19 -12 56 0 16 5 46 12 67 16 20 3 37 10 37 15 0 5 -14 5
-32 -1 -37 -10 -74 -12 -66 -3 4 3 28 12 55 19 l48 13 -50 1 -50 1 4 48 c3 36
6 42 12 27 8 -20 8 -20 10 0 1 12 5 6 9 -15 l7 -35 2 38 c1 46 18 55 75 39 23
-6 42 -7 44 -2 5 14 32 -1 32 -18 0 -12 4 -12 21 4 12 10 31 20 43 21 11 1 35
5 51 8 23 5 26 4 15 -4 -20 -14 -7 -14 25 1 20 9 28 9 34 0 5 -8 14 -8 34 3
15 7 27 10 27 5 0 -4 8 -7 18 -5 66 13 92 13 92 0 0 -8 -12 -18 -26 -21 l-27
-7 29 -13 c17 -7 22 -13 13 -13 -9 -1 -22 -8 -29 -16 -7 -9 -19 -14 -26 -11
-7 3 -18 -2 -24 -10 -7 -8 -9 -14 -4 -15 5 0 -1 -4 -13 -9 -13 -5 -23 -16 -23
-25 0 -17 -16 -20 -25 -5 -3 6 -11 10 -16 10 -6 0 -1 -12 11 -27 12 -16 17
-29 11 -31 -8 -3 -7 -10 1 -25 l11 -22 -24 20 c-20 17 -20 16 4 -13 28 -35 34
-57 17 -67 -6 -4 -8 -11 -4 -16 3 -6 12 -3 21 8 13 16 14 15 9 -17 -3 -19 -3
-30 2 -25 8 11 57 14 67 3 7 -7 -37 -17 -83 -21 -17 -1 -30 -13 -43 -39 -19
-38 -19 -38 1 -38 15 0 26 11 36 35 8 19 21 35 29 35 13 0 12 -6 -4 -39 -20
-39 -20 -39 0 -44 16 -4 19 -2 14 13 -8 24 9 56 35 70 16 8 31 6 65 -9 25 -11
45 -16 45 -10 0 5 -7 9 -16 9 -9 0 -14 6 -11 13 2 7 19 11 38 10 l34 -1 -25
13 c-14 8 -34 12 -45 9 -31 -8 -116 53 -138 98 -17 35 -17 39 -1 73 20 43 83
88 167 121 76 30 91 31 78 5 -6 -10 -28 -24 -48 -30 l-38 -10 43 2 c29 2 42
-2 42 -10 0 -15 16 -17 25 -3 3 6 0 10 -7 10 -8 1 -7 4 4 10 9 6 19 23 23 39
6 26 12 30 83 45 130 28 261 46 333 46 37 0 49 4 49 15 0 16 -15 19 -90 16
-25 0 -63 -1 -85 -2 -22 0 -50 -5 -62 -11 -13 -6 -26 -8 -30 -5 -12 13 6 19
71 24 l66 6 0 145 0 144 27 -5 c15 -3 36 -1 47 5 27 15 3 28 -54 28 -25 0 -83
7 -130 14 -226 37 -421 65 -475 70 -49 3 -235 26 -330 39 -19 3 -20 -1 -14
-132z m136 93 l52 -6 -1 -174 -2 -173 -25 -3 c-18 -2 -27 -10 -29 -25 -3 -20
1 -23 27 -23 24 0 31 -4 31 -20 0 -18 -7 -20 -62 -20 -35 0 -72 -3 -84 -6 -20
-5 -20 -2 -22 231 l-2 237 33 -6 c17 -3 55 -8 84 -12z m171 -19 l42 -7 0 -204
0 -204 -70 0 c-73 0 -76 2 -64 48 4 13 14 22 25 22 24 0 25 -17 2 -23 -14 -4
-12 -5 5 -6 16 -1 22 5 22 19 0 16 -7 20 -30 20 l-30 0 0 176 0 176 28 -6 c15
-3 46 -8 70 -11z m232 -41 c63 -9 135 -19 160 -23 l45 -6 3 -166 2 -166 -42
-12 c-23 -7 -44 -9 -45 -4 -4 11 -71 4 -79 -8 -7 -12 -54 -11 -54 1 0 14 -73
13 -88 -2 -6 -6 -38 -13 -69 -14 -197 -9 -243 -13 -283 -23 -35 -8 -48 -7 -58
3 -12 11 6 15 105 20 65 4 141 9 169 12 l51 6 7 60 c3 34 6 126 6 205 l0 143
28 -5 c15 -3 79 -12 142 -21z m292 -184 l-2 -155 -35 -3 -35 -2 0 163 0 164
37 -6 38 -6 -3 -155z m85 -2 l2 -148 -33 0 -33 0 -2 151 -2 150 33 -3 33 -3 2
-147z m-737 -134 c0 -8 -9 -14 -20 -14 -11 0 -20 6 -20 13 0 7 9 13 20 14 11
1 20 -4 20 -13z m360 -105 c0 -5 -6 -9 -14 -9 -8 0 -16 -3 -18 -7 -5 -13 -63
-40 -76 -35 -18 6 -14 22 6 23 10 0 12 3 5 6 -7 2 -13 12 -13 20 0 9 6 13 13
10 8 -3 29 -2 48 2 36 8 49 6 49 -10z m80 2 c0 -10 -52 -31 -62 -25 -16 10 22
42 43 37 10 -3 19 -8 19 -12z"/>
<path d="M275 1289 c22 -4 54 -8 70 -7 26 0 25 1 -10 9 -22 4 -53 8 -70 7 -26
0 -25 -1 10 -9z"/>
<path d="M267 1173 c18 -2 50 -2 70 0 21 2 7 4 -32 4 -38 0 -55 -2 -38 -4z"/>
<path d="M754 1189 c-9 -15 12 -33 30 -26 9 4 16 13 16 22 0 17 -35 21 -46 4z"/>
<path d="M1900 1433 c-14 -3 -27 -8 -30 -12 -3 -4 -25 -13 -50 -19 l-45 -11
52 4 c29 2 63 11 77 20 17 11 36 14 63 11 28 -5 33 -4 18 3 -21 10 -45 11 -85
4z"/>
<path d="M950 1412 c0 -11 69 -26 78 -18 8 9 1 13 -40 20 -22 4 -38 3 -38 -2z"/>
<path d="M1145 1390 c28 -12 67 -12 60 0 -3 6 -23 10 -43 9 -30 0 -33 -2 -17
-9z"/>
<path d="M1252 1355 c13 -13 143 -44 146 -35 2 5 17 10 32 10 16 0 31 4 34 8
3 5 -14 9 -37 9 -23 -1 -73 2 -111 6 -38 4 -67 5 -64 2z"/>
<path d="M54 1266 c-9 -23 -3 -27 48 -32 31 -3 37 -2 23 5 -11 4 -23 7 -27 5
-4 -3 -14 6 -22 18 -14 19 -16 20 -22 4z"/>
<path d="M161 1148 c-1 -34 -6 -67 -12 -74 -11 -13 -2 -24 22 -24 14 0 17 7
14 34 -1 18 -6 42 -9 53 -4 14 -1 23 8 26 17 7 10 47 -9 47 -8 0 -12 -21 -14
-62z"/>
<path d="M68 1183 c18 -2 45 -2 60 0 15 2 0 4 -33 4 -33 0 -45 -2 -27 -4z"/>
<path d="M0 1064 c0 -50 4 -83 9 -79 6 3 14 -3 20 -12 9 -16 10 -16 11 5 0 12
-4 22 -9 22 -5 0 -11 14 -13 30 -3 17 -1 30 4 30 4 0 3 11 -4 25 -8 18 -8 28
1 39 9 11 8 15 -4 20 -13 4 -15 -8 -15 -80z"/>
<path d="M1295 930 c3 -5 12 -7 20 -3 8 3 15 0 15 -6 0 -5 -12 -10 -27 -10
-37 1 -135 -15 -151 -25 -6 -4 -12 -3 -12 2 0 13 25 22 63 23 18 0 41 4 52 9
42 18 -60 10 -177 -14 -193 -39 -269 -87 -240 -150 13 -28 123 -85 162 -83 14
0 59 -7 100 -16 78 -17 232 -37 285 -37 51 0 14 18 -50 25 -107 11 -139 16
-230 37 -49 11 -97 21 -105 23 -8 2 -25 4 -37 4 -12 1 -28 7 -35 15 -8 8 -23
16 -34 19 -17 4 -17 5 -1 6 27 2 10 21 -18 21 -18 0 -23 4 -18 15 3 9 13 14
22 13 9 -2 21 2 26 10 6 7 17 14 25 15 8 2 21 6 28 11 7 4 30 9 50 11 20 2 45
6 54 10 9 4 22 4 28 0 7 -4 14 2 17 14 5 18 7 19 17 7 9 -13 17 -13 51 -1 22
7 57 15 78 18 30 5 37 3 37 -11 0 -27 -17 -45 -34 -39 -9 4 -16 3 -16 -2 0 -8
19 -14 75 -23 12 -2 21 4 23 15 2 9 -1 17 -7 17 -5 0 -12 -8 -14 -17 -4 -17
-5 -17 -6 0 0 9 -5 17 -10 17 -4 0 -6 11 -3 25 3 17 10 25 21 23 9 -1 26 3 37
10 12 6 47 12 78 13 80 3 81 19 2 19 -37 0 -66 -4 -66 -10 0 -5 -7 -10 -16
-10 -8 0 -12 5 -9 10 4 6 -7 10 -25 10 -17 0 -29 -4 -25 -10z"/>
<path d="M1594 932 c3 -5 31 -10 63 -11 32 -1 79 -4 106 -6 26 -2 47 0 47 4 0
5 -37 11 -82 14 -111 9 -140 9 -134 -1z"/>
<path d="M1475 911 c-14 -6 -3 -9 39 -10 32 0 65 -6 72 -12 11 -9 14 -8 14 5
0 9 -8 16 -17 16 -10 0 -34 2 -53 5 -19 2 -44 1 -55 -4z"/>
<path d="M1830 910 c8 -5 29 -10 45 -10 23 0 27 3 15 10 -8 5 -28 10 -45 10
-23 0 -27 -3 -15 -10z"/>
<path d="M1382 898 c5 -13 38 -20 38 -8 0 5 8 11 18 13 9 3 0 5 -21 6 -25 1
-37 -3 -35 -11z"/>
<path d="M1610 900 c0 -5 13 -10 29 -10 17 0 33 5 36 10 4 6 -8 10 -29 10 -20
0 -36 -4 -36 -10z"/>
<path d="M1915 902 c6 -5 19 -12 30 -14 23 -4 22 -24 -2 -76 -9 -18 -13 -36
-9 -40 9 -8 27 19 20 30 -3 4 -1 8 5 8 6 0 8 7 5 15 -4 8 -1 15 5 15 6 0 11 6
11 14 0 22 19 30 35 16 22 -18 18 -32 -5 -25 -11 4 -20 2 -20 -4 0 -6 4 -11 8
-11 5 0 14 -10 21 -22 l11 -23 -6 24 c-6 22 -4 23 22 16 32 -8 59 -13 88 -14
12 -1 16 -6 12 -17 -4 -11 2 -10 25 7 23 16 33 19 42 10 9 -9 8 -11 -3 -7 -10
4 -26 -12 -49 -50 -18 -30 -31 -58 -28 -60 3 -3 8 3 11 14 4 11 13 23 21 26 8
3 15 13 15 21 0 9 4 13 10 10 6 -3 7 1 4 12 -3 11 4 7 21 -12 24 -27 26 -28
15 -5 -12 23 -11 24 5 9 20 -20 7 -54 -25 -64 -11 -4 -18 -10 -16 -14 7 -10
-59 -41 -88 -41 -32 0 -126 -29 -126 -39 0 -5 19 -4 43 1 23 4 59 10 80 13 86
11 177 70 177 115 0 34 -84 98 -159 120 -38 12 -75 19 -81 15 -5 -3 -10 -2
-10 3 0 6 -17 13 -37 17 -21 3 -49 9 -63 12 -17 4 -22 2 -15 -5z m201 -53 c24
-6 44 -17 44 -24 0 -11 -6 -10 -30 1 -16 8 -42 16 -56 17 -15 1 -30 9 -32 16
-3 10 0 12 13 7 10 -3 37 -11 61 -17z"/>
<path d="M1695 890 c-3 -5 3 -10 14 -10 25 0 38 -20 20 -31 -15 -9 -91 -5
-108 5 -6 4 -11 1 -11 -7 0 -11 17 -16 63 -19 34 -3 64 -4 66 -2 1 1 4 14 5
28 0 14 4 26 7 26 14 0 17 -14 8 -37 -11 -29 -3 -45 11 -23 14 22 12 49 -4 66
-17 16 -62 19 -71 4z"/>
<path d="M1796 859 c-9 -48 -8 -49 27 -49 17 0 46 -4 64 -9 25 -7 33 -6 37 6
9 22 8 22 -24 13 -20 -6 -30 -5 -30 2 0 6 -14 9 -33 6 -30 -3 -33 -1 -29 20 3
16 9 21 22 17 22 -7 52 4 44 16 -3 5 -20 9 -38 9 -29 0 -34 -4 -40 -31z"/>
<path d="M1900 870 c0 -15 38 -32 45 -20 3 5 3 15 0 20 -8 13 -45 13 -45 0z"/>
<path d="M1350 845 c0 -6 28 -10 65 -10 36 0 65 3 65 8 0 8 -9 10 -77 11 -29
1 -53 -3 -53 -9z"/>
<path d="M445 821 l-40 -7 36 -7 c20 -4 48 -3 63 3 52 19 25 24 -59 11z"/>
<path d="M1971 794 c-15 -34 -11 -37 16 -14 18 14 20 20 9 29 -10 8 -16 5 -25
-15z"/>
<path d="M270 801 c-49 -5 -52 -7 -24 -13 18 -4 49 -1 75 7 46 14 38 15 -51 6z"/>
<path d="M366 784 c-5 -13 -2 -15 16 -10 13 3 34 6 48 6 20 0 22 2 10 10 -24
15 -67 12 -74 -6z"/>
<path d="M245 773 c-100 -7 -90 -24 12 -21 67 2 89 6 86 16 -3 6 -13 11 -22
10 -9 -1 -43 -3 -76 -5z"/>
<path d="M2010 768 c0 -5 12 -8 26 -8 14 0 34 -5 45 -10 15 -8 19 -7 19 4 0 8
6 16 12 18 7 3 -13 4 -45 4 -31 -1 -57 -4 -57 -8z"/>
<path d="M2115 744 c-9 -14 -14 -29 -10 -32 6 -7 44 36 45 51 0 16 -19 6 -35
-19z"/>
<path d="M2305 650 c-8 -13 20 -24 40 -16 8 3 15 10 15 16 0 13 -47 13 -55 0z"/>
<path d="M370 642 c0 -5 7 -16 16 -23 9 -8 25 -33 35 -57 16 -37 22 -42 34
-32 12 10 11 17 -8 46 -26 36 -77 81 -77 66z"/>
<path d="M1880 620 c-8 -5 -30 -10 -47 -10 -33 0 -33 0 -33 -50 l0 -50 69 0
c67 0 68 1 64 24 -4 17 -13 25 -33 28 -32 5 -30 -9 4 -22 20 -8 20 -9 1 -10
-11 -1 -28 -3 -37 -5 -10 -2 -18 1 -18 6 0 5 -8 9 -19 9 -14 0 -17 6 -13 26 5
25 7 26 54 22 30 -3 44 -2 36 3 -11 7 -10 11 2 18 9 7 17 6 21 -1 4 -6 12 -7
18 -4 6 4 11 2 11 -3 0 -6 -4 -11 -10 -11 -5 0 -10 -5 -10 -11 0 -5 4 -8 8 -5
5 3 8 -10 7 -29 0 -23 4 -35 12 -35 7 0 13 7 13 15 0 8 9 15 21 15 11 0 17 5
14 10 -3 6 -15 10 -26 10 -15 0 -19 7 -19 35 0 34 -1 35 -37 35 -21 0 -45 -5
-53 -10z"/>
<path d="M1090 600 c20 -13 80 -13 80 0 0 6 -21 10 -47 10 -35 0 -44 -3 -33
-10z"/>
<path d="M1376 524 c-20 -47 -36 -91 -36 -96 0 -13 -124 -4 -270 18 -140 20
-179 30 -198 46 -23 21 -175 38 -191 23 -12 -13 21 -27 73 -31 68 -6 103 -18
132 -45 19 -18 20 -24 11 -64 -6 -25 -7 -48 -3 -52 11 -11 33 20 40 57 6 32 5
33 -8 15 -17 -22 -22 -9 -7 14 6 9 6 22 0 33 -5 10 -6 18 -2 18 10 0 39 -61
35 -73 -1 -5 2 -6 8 -2 13 8 13 -10 -4 -73 -12 -42 -12 -52 -1 -52 18 0 31
115 15 135 -9 11 0 13 59 10 40 -1 68 1 65 6 -3 5 -15 9 -27 9 -12 0 -29 5
-37 11 -12 8 -10 10 10 5 33 -6 177 -25 218 -28 35 -2 40 -9 17 -28 -8 -7 -15
-19 -15 -27 0 -21 60 16 71 45 5 12 12 22 16 22 11 0 34 37 38 61 2 10 11 33
20 52 19 41 27 77 15 77 -4 0 -24 -39 -44 -86z"/>
<path d="M1675 589 c-13 -5 6 -8 50 -8 48 -1 65 2 55 9 -17 11 -76 11 -105 -1z"/>
<path d="M2735 530 c-10 -11 -25 -20 -34 -20 -9 0 -22 -10 -29 -21 -13 -21
-13 -21 9 -5 18 12 26 13 38 3 12 -10 14 -9 8 7 -7 17 -6 17 10 5 15 -12 16
-12 11 2 -4 9 -1 22 5 28 6 6 8 13 5 16 -2 3 -13 -4 -23 -15z"/>
<path d="M1822 488 c3 -9 33 -14 93 -16 78 -3 87 -1 75 13 -16 20 -174 22
-168 3z"/>
<path d="M691 420 c-7 -22 -9 -44 -6 -49 3 -5 -1 -11 -7 -14 -7 -2 -10 -8 -5
-12 13 -15 25 8 32 63 8 62 3 67 -14 12z"/>
<path d="M1829 448 c11 -15 28 -18 110 -16 l96 2 -94 3 c-54 2 -102 9 -110 16
-14 11 -14 10 -2 -5z"/>
<path d="M1110 400 c0 -5 7 -10 15 -10 8 0 15 -4 15 -10 0 -5 7 -10 15 -10 24
0 17 20 -11 30 -32 12 -34 12 -34 0z"/>
<path d="M470 387 c-58 -28 -90 -53 -90 -71 0 -12 5 -16 16 -12 9 3 18 6 20 6
2 0 4 9 4 20 0 13 14 27 40 40 22 11 40 23 40 25 0 6 -1 6 -30 -8z"/>
<path d="M2569 390 c-5 -4 1 -12 15 -18 13 -6 27 -20 31 -31 3 -12 15 -21 26
-21 23 0 24 11 4 50 -12 22 -22 29 -41 28 -14 -2 -29 -5 -35 -8z"/>
<path d="M1190 370 c7 -13 18 -18 33 -16 12 3 24 5 27 5 11 2 -18 19 -43 25
-26 6 -27 5 -17 -14z"/>
<path d="M2362 377 c-9 -10 -6 -13 13 -13 13 0 22 3 19 7 -2 4 13 10 33 12 36
3 36 4 -8 5 -28 1 -51 -3 -57 -11z"/>
<path d="M2556 285 c7 -58 18 -85 26 -64 3 8 -3 37 -13 64 l-19 50 6 -50z"/>
<path d="M1905 310 c-19 -31 -20 -55 -4 -163 12 -82 15 -90 42 -103 16 -9 31
-13 34 -11 2 3 -5 8 -16 12 -29 9 -37 29 -46 105 -4 36 -11 72 -16 82 -14 25
22 62 62 64 72 4 76 5 49 14 -36 12 -98 12 -105 0z"/>
<path d="M1191 274 c-16 -58 -14 -73 8 -67 14 3 21 17 26 50 3 25 4 47 1 51
-3 3 -6 -1 -6 -9 0 -12 -2 -12 -9 0 -7 11 -12 4 -20 -25z"/>
<path d="M1257 303 c-2 -5 -7 -26 -11 -48 l-6 -40 15 34 c10 22 20 31 30 27 9
-3 15 0 15 10 0 12 -4 13 -22 3 -18 -10 -20 -9 -15 5 6 16 2 22 -6 9z"/>
<path d="M2316 266 c4 -33 2 -46 -5 -41 -6 3 -11 15 -11 25 0 10 -5 22 -12 26
-8 5 -9 2 -5 -10 4 -10 7 -24 7 -31 0 -19 42 -57 52 -47 4 4 -2 34 -13 67
l-19 60 6 -49z"/>
<path d="M2660 296 c-38 -11 -41 -13 -20 -17 37 -7 68 0 74 17 6 16 6 16 -54
0z"/>
<path d="M825 289 c-16 -5 -38 -7 -47 -5 -10 2 -18 0 -18 -4 0 -5 -3 -17 -6
-27 -5 -17 -5 -17 8 -1 8 10 37 20 66 24 29 4 55 11 58 15 7 11 -22 10 -61 -2z"/>
<path d="M1148 219 c-9 -35 -14 -66 -12 -68 2 -2 11 0 21 3 12 5 14 9 6 14 -9
6 -9 19 -2 51 16 71 4 71 -13 0z"/>
<path d="M1727 245 c-10 -21 -16 -40 -13 -42 7 -7 38 56 34 68 -2 6 -11 -6
-21 -26z"/>
<path d="M2245 241 c4 -28 -7 -42 -18 -23 -2 4 -2 1 -1 -5 2 -7 0 -13 -5 -13
-4 0 -8 -15 -9 -34 -1 -36 33 -76 66 -76 12 1 7 10 -20 34 -39 34 -48 49 -25
40 8 -3 20 3 28 13 12 16 12 17 -2 6 -9 -7 -19 -10 -22 -6 -13 12 -7 23 13 23
17 0 19 4 14 28 -10 40 -24 50 -19 13z"/>
<path d="M324 229 c-16 -17 -16 -22 -4 -29 20 -13 34 -7 38 15 3 12 0 15 -9
10 -9 -6 -11 -3 -6 8 8 22 4 21 -19 -4z"/>
<path d="M2166 242 c-3 -5 -1 -33 3 -63 5 -30 7 -57 5 -60 -2 -4 2 -9 9 -12
11 -4 11 9 5 66 -9 74 -12 84 -22 69z"/>
<path d="M1269 238 c0 -2 -2 -13 -3 -26 -2 -12 -11 -29 -22 -37 -10 -8 -14
-15 -7 -15 13 0 43 27 43 40 0 5 3 15 6 24 3 9 1 16 -5 16 -6 0 -11 -1 -12 -2z"/>
<path d="M572 212 c-16 -14 -19 -22 -12 -27 14 -9 44 18 38 35 -2 7 -11 4 -26
-8z"/>
<path d="M2732 192 c4 -21 38 -29 38 -9 0 8 -9 17 -21 20 -15 4 -19 1 -17 -11z"/>
<path d="M647 162 c-18 -19 -23 -42 -9 -42 4 0 16 14 25 30 20 33 10 40 -16
12z"/>
<path d="M1010 139 c0 -11 -5 -29 -11 -40 -9 -18 -9 -19 11 -7 22 14 35 42 25
58 -11 17 -25 11 -25 -11z"/>
<path d="M2295 141 c13 -13 17 -14 24 -3 7 12 14 11 39 -2 35 -18 52 -20 52
-6 0 5 -8 6 -17 3 -12 -5 -15 -2 -10 10 5 15 -1 17 -49 16 -51 -2 -54 -3 -39
-18z"/>
<path d="M1228 123 c6 -2 10 -9 6 -14 -3 -5 4 -9 15 -9 12 0 21 7 21 15 0 10
-9 15 -27 14 -16 0 -22 -3 -15 -6z"/>
<path d="M1292 98 c-1 -28 22 -33 39 -7 15 24 10 37 -15 35 -18 -1 -23 -7 -24
-28z"/>
<path d="M2434 119 c-27 -11 33 -9 66 1 22 7 21 8 -11 7 -20 0 -45 -4 -55 -8z"/>
<path d="M2412 65 c25 -29 30 -28 21 3 -3 13 -13 22 -24 22 -18 0 -17 -2 3
-25z"/>
<path d="M2795 70 c-7 -23 10 -50 31 -50 8 0 14 10 13 23 0 12 -3 16 -6 10 -8
-21 -25 -15 -18 6 3 11 1 22 -4 25 -5 4 -13 -3 -16 -14z"/>
<path d="M2489 50 c18 -18 36 -28 40 -23 3 6 13 12 21 15 16 6 -15 22 -68 34
l-27 7 34 -33z"/>
<path d="M1751 30 c-1 -19 4 -26 19 -26 22 0 23 2 10 31 -9 20 -9 20 -10 0 -1
-20 -1 -20 -10 0 -8 18 -9 18 -9 -5z"/>
</g>
</svg>
